<svg width="564" height="61" viewBox="0 0 564 61" fill="none" xmlns="http://www.w3.org/2000/svg">
<circle cx="93" cy="19" r="19" fill="white"/>
<path d="M100.778 11.2218C98.7005 9.14421 95.9382 8 93 8C90.0618 8 87.2995 9.14421 85.2218 11.2218C83.1442 13.2995 82 16.0618 82 19C82 21.9382 83.1442 24.7005 85.2218 26.7782C87.2995 28.8558 90.0618 30 93 30C95.9382 30 98.7005 28.8558 100.778 26.7782C102.856 24.7005 104 21.9382 104 19C104 16.0618 102.856 13.2995 100.778 11.2218ZM99.8667 25.8667C98.0325 27.7008 95.5939 28.7109 93 28.7109C90.4061 28.7109 87.9675 27.7008 86.1333 25.8667C84.2992 24.0325 83.2891 21.5939 83.2891 19C83.2891 16.4061 84.2992 13.9675 86.1333 12.1333C87.9675 10.2992 90.4061 9.28906 93 9.28906C95.5939 9.28906 98.0325 10.2992 99.8667 12.1333C101.701 13.9675 102.711 16.4061 102.711 19C102.711 21.5939 101.701 24.0325 99.8667 25.8667Z" fill="black"/>
<path d="M93 11.9531C89.1143 11.9531 85.9531 15.1143 85.9531 19C85.9531 22.8857 89.1143 26.0469 93 26.0469C96.8857 26.0469 100.047 22.8857 100.047 19C100.047 15.1143 96.8857 11.9531 93 11.9531ZM98.2421 16.6191L94.9624 17.6847C94.654 17.2259 94.1889 16.8813 93.6446 16.7268V13.2785C95.6927 13.5077 97.4196 14.8154 98.2421 16.6191ZM91.9258 19C91.9258 18.4077 92.4077 17.9258 93 17.9258C93.5923 17.9258 94.0742 18.4077 94.0742 19C94.0742 19.5923 93.5923 20.0742 93 20.0742C92.4077 20.0742 91.9258 19.5923 91.9258 19ZM92.3555 13.2785V16.7268C91.8112 16.8813 91.3461 17.2259 91.0376 17.6847L87.758 16.6191C88.5804 14.8154 90.3073 13.5077 92.3555 13.2785ZM87.2422 19C87.2422 18.6044 87.2823 18.2181 87.3587 17.8447L90.639 18.9105C90.6379 18.9403 90.6367 18.97 90.6367 19C90.6367 19.5504 90.8264 20.0571 91.1431 20.4592L89.1171 23.2477C87.9656 22.1942 87.2422 20.68 87.2422 19ZM90.1591 24.0067L92.185 21.2183C92.4392 21.312 92.7137 21.3633 93 21.3633C93.2863 21.3633 93.5608 21.312 93.815 21.2183L95.8409 24.0067C95.0021 24.4844 94.0324 24.7578 93 24.7578C91.9676 24.7578 90.9979 24.4844 90.1591 24.0067ZM96.8829 23.2477L94.8569 20.4592C95.1736 20.0571 95.3633 19.5504 95.3633 19C95.3633 18.97 95.3621 18.9403 95.361 18.9105L98.6413 17.8447C98.7177 18.2181 98.7578 18.6044 98.7578 19C98.7578 20.68 98.0344 22.1942 96.8829 23.2477Z" fill="black"/>
<circle cx="19" cy="19" r="19" fill="white"/>
<path d="M27.1288 17.8939L21.0697 11.8562L22.6602 10.2675C22.9502 9.9778 22.9505 9.50775 22.6607 9.21771C22.371 8.92764 21.901 8.92742 21.6109 9.21712L12.653 18.1653C11.4015 18.5145 10.4807 19.6647 10.4807 21.026C10.4807 21.436 10.8131 21.7684 11.2231 21.7684C11.6331 21.7684 11.9654 21.436 11.9654 21.026C11.9654 20.4499 12.2953 19.9494 12.776 19.7034L19.0561 25.9619C19.6349 26.5401 20.3948 26.8291 21.1549 26.8291C21.915 26.8291 22.6753 26.5398 23.2536 25.9615L27.1304 22.0948C27.6913 21.5338 28.0002 20.7879 28 19.9946C27.9999 19.2011 27.6907 18.4554 27.1288 17.8939ZM26.0812 21.0442L22.2045 24.911C21.6259 25.4896 20.6842 25.4898 20.1048 24.9109L14.7168 19.5413H22.9521C23.3621 19.5413 23.6945 19.209 23.6945 18.799C23.6945 18.389 23.3621 18.0567 22.9521 18.0567H14.8626L20.0193 12.9055L26.0801 18.9449C26.3607 19.2253 26.5153 19.5981 26.5154 19.9948C26.5154 20.3915 26.361 20.7644 26.0812 21.0442Z" fill="black"/>
<path d="M12.5305 23.8207C12.1527 23.2567 11.7792 22.8009 11.7635 22.7818C11.6224 22.6102 11.412 22.5107 11.1899 22.5107C10.9678 22.5107 10.7574 22.6102 10.6164 22.7818C10.6006 22.8009 10.2271 23.2567 9.84935 23.8207C9.08804 24.9574 9 25.5028 9 25.8142C9 27.0217 9.98242 28.0041 11.1899 28.0041C12.3974 28.0041 13.3798 27.0217 13.3798 25.8142C13.3798 25.5028 13.2918 24.9574 12.5305 23.8207ZM11.1899 26.5194C10.801 26.5194 10.4847 26.2031 10.4847 25.816C10.4848 25.813 10.5042 25.5091 11.0892 24.6375C11.1229 24.5874 11.1565 24.5382 11.1899 24.4901C11.2233 24.5382 11.257 24.5874 11.2906 24.6375C11.8655 25.494 11.8942 25.8023 11.8951 25.8155C11.8944 26.2038 11.5783 26.5194 11.1899 26.5194Z" fill="black"/>
<circle cx="167" cy="19" r="19" fill="white"/>
<path d="M163.25 16C163.595 16 163.875 15.7202 163.875 15.375C163.875 15.0298 163.595 14.75 163.25 14.75C162.905 14.75 162.625 15.0298 162.625 15.375C162.625 15.7202 162.905 16 163.25 16Z" fill="black"/>
<path d="M167 17.25C167.345 17.25 167.625 16.9702 167.625 16.625C167.625 16.2798 167.345 16 167 16C166.655 16 166.375 16.2798 166.375 16.625C166.375 16.9702 166.655 17.25 167 17.25Z" fill="black"/>
<path d="M167 14.75C167.345 14.75 167.625 14.4702 167.625 14.125C167.625 13.7798 167.345 13.5 167 13.5C166.655 13.5 166.375 13.7798 166.375 14.125C166.375 14.4702 166.655 14.75 167 14.75Z" fill="black"/>
<path d="M170.75 16C171.095 16 171.375 15.7202 171.375 15.375C171.375 15.0298 171.095 14.75 170.75 14.75C170.405 14.75 170.125 15.0298 170.125 15.375C170.125 15.7202 170.405 16 170.75 16Z" fill="black"/>
<path d="M173.849 13.645C173.849 13.645 168.203 11.2401 168.201 11.2395C167.82 11.0806 167.416 11 167 11C166.584 11 166.18 11.0806 165.799 11.2395C165.797 11.2401 160.151 13.645 160.151 13.645C159.452 13.9378 159 14.6165 159 15.375C159 16.1335 159.452 16.8122 160.151 17.105C160.151 17.105 165.797 19.5099 165.799 19.5106C166.18 19.6694 166.584 19.75 167 19.75C167.416 19.75 167.82 19.6694 168.201 19.5106C168.203 19.5099 173.848 17.1052 173.848 17.1052C174.548 16.8125 175 16.1336 175 15.375C175 14.6165 174.548 13.9378 173.849 13.645ZM173.365 15.9524C173.364 15.953 167.718 18.3576 167.718 18.3576C167.491 18.4521 167.249 18.5 167 18.5C166.751 18.5 166.509 18.4521 166.282 18.3576C166.282 18.3576 160.636 15.9531 160.635 15.9524C160.401 15.855 160.25 15.6283 160.25 15.375C160.25 15.1217 160.401 14.895 160.635 14.7976C160.636 14.797 166.281 12.3924 166.281 12.3924C166.509 12.2979 166.751 12.25 167 12.25C167.249 12.25 167.491 12.2979 167.718 12.3924C167.718 12.3924 173.364 14.797 173.365 14.7976C173.599 14.895 173.75 15.1217 173.75 15.375C173.75 15.6283 173.599 15.855 173.365 15.9524Z" fill="black"/>
<path d="M174.259 18.1814C173.918 18.2367 173.687 18.5577 173.742 18.8984C173.747 18.9316 173.75 18.9657 173.75 19C173.75 19.2533 173.599 19.4799 173.365 19.5774C173.364 19.578 167.718 21.9827 167.718 21.9827C167.491 22.0771 167.249 22.125 167 22.125C166.751 22.125 166.509 22.0771 166.282 21.9827C166.282 21.9827 160.636 19.578 160.635 19.5774C160.401 19.4799 160.25 19.2533 160.25 19C160.25 18.9658 160.253 18.9316 160.258 18.8984C160.313 18.5576 160.082 18.2367 159.741 18.1815C159.4 18.1264 159.079 18.3579 159.024 18.6986C159.008 18.7977 159 18.899 159 19C159 19.7586 159.452 20.4375 160.152 20.7302C160.152 20.7302 165.797 23.1349 165.799 23.1355C166.18 23.2944 166.584 23.3749 167 23.3749C167.416 23.3749 167.82 23.2944 168.201 23.1355C168.203 23.1349 173.848 20.7302 173.848 20.7302C174.548 20.4375 175 19.7586 175 19C175 18.8989 174.992 18.7974 174.976 18.6982C174.92 18.3575 174.599 18.1261 174.259 18.1814Z" fill="black"/>
<path d="M174.259 21.8065C173.918 21.8618 173.687 22.1828 173.742 22.5235C173.747 22.5567 173.75 22.5908 173.75 22.6251C173.75 22.8784 173.599 23.105 173.365 23.2025C173.364 23.2031 167.718 25.6078 167.718 25.6078C167.491 25.7022 167.249 25.7501 167 25.7501C166.751 25.7501 166.509 25.7022 166.282 25.6078C166.282 25.6078 160.636 23.2031 160.635 23.2025C160.401 23.105 160.25 22.8784 160.25 22.6251C160.25 22.5909 160.253 22.5567 160.258 22.5235C160.313 22.1827 160.082 21.8618 159.741 21.8066C159.4 21.7515 159.079 21.983 159.024 22.3237C159.008 22.4228 159 22.5242 159 22.6251C159 23.3837 159.452 24.0626 160.152 24.3553C160.152 24.3553 165.797 26.76 165.799 26.7606C166.18 26.9195 166.584 27.0001 167 27.0001C167.416 27.0001 167.82 26.9195 168.201 26.7606C168.203 26.76 173.848 24.3553 173.848 24.3553C174.548 24.0626 175 23.3837 175 22.6251C175 22.524 174.992 22.4225 174.976 22.3233C174.92 21.9826 174.599 21.7512 174.259 21.8065Z" fill="black"/>
<circle cx="241" cy="19" r="19" fill="white"/>
<path d="M248.362 24.426C248.119 23.877 247.676 23.4556 247.116 23.2393C246.846 23.1349 246.565 23.0859 246.288 23.0882V19.6401C246.288 18.9171 246.487 18.2087 246.863 17.5914C247.152 17.1173 247.305 16.5733 247.305 16.0182C247.305 15.0716 246.853 14.1674 246.096 13.5994C245.727 13.3229 245.44 12.9512 245.266 12.5245L244.841 11.4816C244.226 9.9741 242.776 9 241.148 9C239.52 9 238.071 9.9741 237.456 11.4816L237.03 12.5244C236.856 12.9511 236.569 13.3229 236.201 13.5994C235.444 14.1673 234.991 15.0716 234.991 16.0181C234.991 16.5733 235.144 17.1173 235.433 17.5914C235.809 18.2087 236.008 18.9171 236.008 19.64V23.0882C235.731 23.0859 235.45 23.1349 235.18 23.2393C234.62 23.4556 234.178 23.877 233.934 24.426C233.691 24.975 233.677 25.5857 233.893 26.1458L234.197 26.9344C234.433 27.5451 234.843 28.0636 235.383 28.4339C235.923 28.8043 236.554 29 237.209 29H245.087C245.742 29 246.373 28.8043 246.913 28.434C247.453 28.0637 247.863 27.5452 248.099 26.9345L248.403 26.1459C248.62 25.5858 248.605 24.975 248.362 24.426ZM244.181 12.967C244.435 13.5902 244.854 14.1331 245.392 14.5369C245.856 14.8847 246.133 15.4384 246.133 16.0181C246.133 16.3581 246.039 16.6912 245.863 16.9816C245.374 17.7827 245.116 18.702 245.116 19.6401V23.4295C244.871 23.5826 244.652 23.7844 244.477 24.0311L244.23 24.3762H243.945V22.4308C243.945 19.0315 243.796 15.5909 243.503 12.2046L243.428 11.3342C243.558 11.5143 243.669 11.7116 243.755 11.9242L244.181 12.967ZM239.683 16.3224H242.613C242.646 16.9565 242.674 17.5911 242.697 18.2258H239.6C239.622 17.5911 239.65 16.9565 239.683 16.3224ZM239.563 19.3976H242.733C242.749 20.0327 242.761 20.6674 242.767 21.301H239.529C239.536 20.6674 239.547 20.0327 239.563 19.3976ZM242.413 13.2471C242.462 13.8802 242.507 14.5149 242.546 15.1505H239.75C239.789 14.5149 239.834 13.8802 239.883 13.2471H242.413ZM239.524 22.4729H242.773V24.3762H239.524V22.4729ZM241.148 10.1719C241.505 10.1719 241.849 10.2382 242.168 10.3612L242.316 12.0752H239.98L240.129 10.3612C240.447 10.2382 240.792 10.1719 241.148 10.1719ZM236.434 16.9816C236.257 16.6912 236.163 16.3581 236.163 16.0181C236.163 15.4384 236.44 14.8847 236.904 14.5369C237.442 14.133 237.861 13.5902 238.116 12.967L238.541 11.9242C238.628 11.7116 238.738 11.5143 238.868 11.3342L238.793 12.2046C238.5 15.591 238.352 19.0316 238.352 22.4309V24.3762H238.066L237.82 24.0311C237.644 23.7844 237.425 23.5826 237.18 23.4295V19.64C237.18 18.702 236.922 17.7827 236.434 16.9816ZM247.31 25.7237L247.006 26.5123C246.702 27.2993 245.931 27.8281 245.087 27.8281H237.209C236.365 27.8281 235.594 27.2994 235.291 26.5123L234.986 25.7237C234.882 25.4557 234.89 25.1633 235.006 24.9005C235.122 24.6378 235.334 24.4361 235.602 24.3325C235.729 24.2836 235.86 24.2601 235.99 24.2601C236.33 24.2601 236.659 24.4218 236.866 24.7115L237.462 25.5481H244.834L245.431 24.7115C245.716 24.3112 246.236 24.1555 246.694 24.3325C246.962 24.436 247.174 24.6377 247.29 24.9005C247.407 25.1633 247.414 25.4557 247.31 25.7237Z" fill="black"/>
<circle cx="389" cy="19" r="19" fill="white"/>
<path d="M397.473 21.2C397.764 21.2 398 20.9463 398 20.6333C398 20.3203 397.764 20.0667 397.473 20.0667H395.891V14.9667C395.891 14.209 395.412 13.5875 394.801 13.3614V12.7C394.801 11.7626 394.091 11 393.219 11C392.346 11 391.637 11.7626 391.637 12.7V13.2667H390.582V12.7C390.582 11.7626 389.872 11 389 11C388.128 11 387.418 11.7626 387.418 12.7V13.2667H386.363V12.7C386.363 11.7626 385.654 11 384.781 11C383.909 11 383.199 11.7626 383.199 12.7V13.3614C382.587 13.5879 382.109 14.2098 382.109 14.9667V17.8H381.055V17.2333C381.055 16.9203 380.819 16.6667 380.527 16.6667C380.236 16.6667 380 16.9203 380 17.2333V21.7667C380 22.0797 380.236 22.3333 380.527 22.3333C380.819 22.3333 381.055 22.0797 381.055 21.7667V21.2H382.109V24.0333C382.109 24.9728 382.851 25.7333 383.727 25.7333H388.473V26.3C388.473 27.2374 389.182 28 390.055 28H394.273C395.147 28 395.891 27.2411 395.891 26.3V25.7333H397.473C397.764 25.7333 398 25.4797 398 25.1667V22.9C398 22.587 397.764 22.3333 397.473 22.3333H395.891V21.2H397.473ZM392.691 12.7C392.691 12.3876 392.928 12.1333 393.219 12.1333C393.509 12.1333 393.746 12.3876 393.746 12.7V13.2667H392.691V12.7ZM388.473 12.7C388.473 12.3876 388.709 12.1333 389 12.1333C389.291 12.1333 389.527 12.3876 389.527 12.7V13.2667H388.473V12.7ZM384.781 12.1333C385.072 12.1333 385.309 12.3876 385.309 12.7V13.2667H384.254V12.7C384.254 12.3876 384.491 12.1333 384.781 12.1333ZM383.727 14.4H394.273C394.573 14.4 394.836 14.6647 394.836 14.9667V15.5333H383.164V14.9667C383.164 14.6647 383.427 14.4 383.727 14.4ZM381.055 20.0667V18.9333H382.109V20.0667H381.055ZM394.836 26.3C394.836 26.6019 394.573 26.8667 394.273 26.8667H390.055C389.764 26.8667 389.527 26.6124 389.527 26.3V25.1667C389.527 24.8537 389.291 24.6 389 24.6H383.727C383.427 24.6 383.164 24.3353 383.164 24.0333V23.4667H394.836V26.3ZM396.945 23.4667V24.6H395.891V23.4667H396.945ZM394.836 22.3333H383.164V16.6667H394.836V20.0667H393.219C392.928 20.0667 392.691 19.8124 392.691 19.5V18.3667C392.691 18.0537 392.455 17.8 392.164 17.8C391.873 17.8 391.637 18.0537 391.637 18.3667V19.5C391.637 19.6986 391.669 19.8893 391.727 20.0667H391.109C390.819 20.0667 390.582 19.8124 390.582 19.5V18.3667C390.582 18.0537 390.346 17.8 390.055 17.8C389.763 17.8 389.527 18.0537 389.527 18.3667V19.5C389.527 19.6986 389.559 19.8893 389.618 20.0667H389C388.709 20.0667 388.473 19.8124 388.473 19.5V18.3667C388.473 18.0537 388.237 17.8 387.945 17.8C387.654 17.8 387.418 18.0537 387.418 18.3667V19.5C387.418 19.6986 387.45 19.8893 387.509 20.0667H386.891C386.6 20.0667 386.363 19.8124 386.363 19.5V18.3667C386.363 18.0537 386.127 17.8 385.836 17.8C385.545 17.8 385.309 18.0537 385.309 18.3667V19.5C385.309 20.4374 386.018 21.2 386.891 21.2H394.836V22.3333Z" fill="black"/>
<circle cx="463" cy="19" r="19" fill="white"/>
<g clip-path="url(#clip0_19_12188)">
<path d="M463 29C460.329 29 457.818 27.9598 455.929 26.0711C454.04 24.1823 453 21.6711 453 19C453 16.3289 454.04 13.8177 455.929 11.9289C457.818 10.0402 460.329 9 463 9C465.671 9 468.182 10.0402 470.071 11.9289C471.96 13.8177 473 16.3289 473 19C473 21.6711 471.96 24.1823 470.071 26.0711C468.182 27.9598 465.671 29 463 29ZM463 10.5625C460.746 10.5625 458.627 11.4402 457.034 13.0338C455.44 14.6274 454.562 16.7463 454.562 19C454.562 21.2537 455.44 23.3726 457.034 24.9662C458.627 26.5598 460.746 27.4375 463 27.4375C465.254 27.4375 467.373 26.5598 468.966 24.9662C470.56 23.3726 471.438 21.2537 471.438 19C471.438 16.7463 470.56 14.6274 468.966 13.0338C467.373 11.4402 465.254 10.5625 463 10.5625ZM463.781 23.5312H462.219V19.7812H458.469V18.2188H462.219V14.4688H463.781V18.2188H467.531V19.7812H463.781V23.5312Z" fill="black"/>
</g>
<circle cx="315" cy="19" r="19" fill="white"/>
<circle cx="311" cy="15" r="2" fill="black"/>
<circle cx="311" cy="23" r="2" fill="black"/>
<circle cx="319" cy="15" r="2" fill="black"/>
<circle cx="319" cy="23" r="2" fill="black"/>
<circle cx="315" cy="19" r="9.25" stroke="black" stroke-width="1.5"/>
<circle cx="315" cy="19" r="4" stroke="black" stroke-width="1.5"/>
<circle cx="537" cy="19" r="19" fill="white"/>
<path d="M544.769 14.3107H542.836V11.3711C542.836 10.6151 542.221 10 541.465 10H539.637C538.88 10 538.265 10.6151 538.265 11.3711V14.3107H536.332C535.745 14.3107 535.254 14.7233 535.131 15.2735H533.238C532.482 15.2735 531.867 15.8885 531.867 16.6446V17.8264H529.231C528.552 17.8264 528 18.3783 528 19.0568V25.715C528 26.3338 528.459 26.8471 529.055 26.9327V27.4727C529.055 27.7639 529.291 28 529.582 28C529.873 28 530.109 27.7639 530.109 27.4727V26.9454H536.156V27.4727C536.156 27.7639 536.392 28 536.683 28C536.975 28 537.211 27.7639 537.211 27.4727V26.9454H539.953V27.4727C539.953 27.7639 540.19 28 540.481 28C540.772 28 541.008 27.7639 541.008 27.4727V26.9454H543.891V27.4727C543.891 27.7639 544.127 28 544.418 28C544.709 28 544.945 27.7639 544.945 27.4727V26.9326C545.541 26.8471 546 26.3337 546 25.7149V15.5412C546 14.8627 545.448 14.3107 544.769 14.3107ZM538.265 25.8907V15.3654H542.836V25.8907H538.265ZM539.32 11.3711C539.32 11.1966 539.462 11.0547 539.637 11.0547H541.465C541.639 11.0547 541.781 11.1966 541.781 11.3711V14.3107H539.32V11.3711ZM536.156 15.5412C536.156 15.4443 536.235 15.3654 536.332 15.3654H537.211V25.8907H536.332C536.235 25.8907 536.156 25.8119 536.156 25.7149V15.5412ZM535.101 18.881V25.7149C535.101 25.7746 535.106 25.8333 535.114 25.8908H531.164V18.881H535.101ZM532.922 16.6446C532.922 16.4701 533.064 16.3282 533.238 16.3282H535.101V17.8264H532.922V16.6446ZM529.055 19.0568C529.055 18.9599 529.134 18.881 529.231 18.881H530.109V25.8908H529.231C529.134 25.8908 529.055 25.8119 529.055 25.715V19.0568ZM544.945 25.7149C544.945 25.8119 544.866 25.8907 544.769 25.8907H543.891V15.3654H544.769C544.866 15.3654 544.945 15.4443 544.945 15.5412V25.7149Z" fill="black"/>
<path d="M7.61684 50.656V51.76C7.29684 51.44 6.94884 51.192 6.57284 51.016C6.11684 50.808 5.65684 50.704 5.19284 50.704C4.27284 50.704 3.50484 51.028 2.88884 51.676C2.28084 52.316 1.97684 53.104 1.97684 54.04C1.97684 55.048 2.30884 55.844 2.97284 56.428C3.64484 57.012 4.38884 57.304 5.20484 57.304C5.71684 57.304 6.21284 57.18 6.69284 56.932C7.02884 56.764 7.33684 56.54 7.61684 56.26V57.364C6.88884 57.884 6.08484 58.144 5.20484 58.144C4.02084 58.144 3.03284 57.748 2.24084 56.956C1.45684 56.164 1.06484 55.188 1.06484 54.028C1.06484 52.836 1.46084 51.844 2.25284 51.052C3.05284 50.26 4.05284 49.864 5.25284 49.864C6.13284 49.864 6.92084 50.128 7.61684 50.656ZM13.2507 57.4C12.7547 57.896 12.1267 58.144 11.3667 58.144C10.6067 58.144 9.97466 57.896 9.47066 57.4C8.97466 56.904 8.72666 56.28 8.72666 55.528C8.72666 54.768 8.97466 54.14 9.47066 53.644C9.97466 53.148 10.6067 52.9 11.3667 52.9C12.1267 52.9 12.7547 53.148 13.2507 53.644C13.7547 54.14 14.0067 54.768 14.0067 55.528C14.0067 56.28 13.7547 56.904 13.2507 57.4ZM12.6027 54.16C12.2667 53.832 11.8547 53.668 11.3667 53.668C10.8787 53.668 10.4627 53.836 10.1187 54.172C9.78266 54.5 9.61466 54.952 9.61466 55.528C9.61466 56.104 9.78666 56.556 10.1307 56.884C10.4747 57.212 10.8867 57.376 11.3667 57.376C11.8467 57.376 12.2587 57.212 12.6027 56.884C12.9467 56.556 13.1187 56.104 13.1187 55.528C13.1187 54.944 12.9467 54.488 12.6027 54.16ZM15.3316 49.252H16.1956V58H15.3316V49.252ZM22.0397 57.4C21.5437 57.896 20.9157 58.144 20.1557 58.144C19.3957 58.144 18.7637 57.896 18.2597 57.4C17.7637 56.904 17.5157 56.28 17.5157 55.528C17.5157 54.768 17.7637 54.14 18.2597 53.644C18.7637 53.148 19.3957 52.9 20.1557 52.9C20.9157 52.9 21.5437 53.148 22.0397 53.644C22.5437 54.14 22.7957 54.768 22.7957 55.528C22.7957 56.28 22.5437 56.904 22.0397 57.4ZM21.3917 54.16C21.0557 53.832 20.6437 53.668 20.1557 53.668C19.6677 53.668 19.2517 53.836 18.9077 54.172C18.5717 54.5 18.4037 54.952 18.4037 55.528C18.4037 56.104 18.5757 56.556 18.9197 56.884C19.2637 57.212 19.6757 57.376 20.1557 57.376C20.6357 57.376 21.0477 57.212 21.3917 56.884C21.7357 56.556 21.9077 56.104 21.9077 55.528C21.9077 54.944 21.7357 54.488 21.3917 54.16ZM24.9847 53.02V55.924C24.9847 56.428 25.0647 56.784 25.2247 56.992C25.4247 57.248 25.7167 57.376 26.1007 57.376C26.4847 57.376 26.7767 57.248 26.9767 56.992C27.1367 56.784 27.2167 56.428 27.2167 55.924V53.02H28.0807V56.02C28.0807 56.692 27.9287 57.192 27.6247 57.52C27.2327 57.936 26.7247 58.144 26.1007 58.144C25.4767 58.144 24.9687 57.936 24.5767 57.52C24.2727 57.192 24.1207 56.692 24.1207 56.02V53.02H24.9847ZM29.7105 58V53.02H30.5745V53.56C30.8545 53.12 31.2305 52.9 31.7025 52.9C31.9425 52.9 32.1985 52.968 32.4705 53.104L32.0625 53.884C31.9025 53.772 31.7345 53.716 31.5585 53.716C31.2545 53.716 31.0225 53.82 30.8625 54.028C30.6705 54.284 30.5745 54.732 30.5745 55.372V58H29.7105ZM35.8924 53.8L35.1844 54.172C35.0484 53.836 34.8164 53.668 34.4884 53.668C34.3204 53.668 34.1764 53.716 34.0564 53.812C33.9444 53.908 33.8884 54.048 33.8884 54.232C33.8884 54.4 33.9404 54.528 34.0444 54.616C34.1564 54.696 34.3724 54.804 34.6924 54.94C35.3244 55.204 35.7404 55.46 35.9404 55.708C36.1164 55.924 36.2044 56.192 36.2044 56.512C36.2044 57.016 36.0404 57.416 35.7124 57.712C35.3924 58 34.9844 58.144 34.4884 58.144C34.3924 58.144 34.2884 58.132 34.1764 58.108C34.0644 58.092 33.9084 58.052 33.7084 57.988C33.5164 57.916 33.3324 57.784 33.1564 57.592C32.9804 57.4 32.8444 57.16 32.7484 56.872L33.4924 56.56C33.6924 57.104 34.0284 57.376 34.5004 57.376C34.7644 57.376 34.9644 57.296 35.1004 57.136C35.2444 56.976 35.3164 56.792 35.3164 56.584C35.3164 56.472 35.2964 56.376 35.2564 56.296C35.2244 56.208 35.1644 56.132 35.0764 56.068C34.9964 56.004 34.9164 55.952 34.8364 55.912C34.7644 55.872 34.6564 55.82 34.5124 55.756C33.8724 55.476 33.4684 55.232 33.3004 55.024C33.1484 54.832 33.0724 54.588 33.0724 54.292C33.0724 53.86 33.2044 53.52 33.4684 53.272C33.7404 53.024 34.0924 52.9 34.5244 52.9C35.1564 52.9 35.6124 53.2 35.8924 53.8Z" fill="black"/>
<path d="M75.2464 49.996H76.2304L78.3424 55.996L80.8504 49.588L83.2264 55.996L85.5664 49.996H86.5504L83.1904 58.42L80.8384 52.012L78.3184 58.42L75.2464 49.996ZM86.7594 58V49.252H87.6234V53.596C87.9754 53.132 88.4514 52.9 89.0514 52.9C89.6914 52.9 90.1674 53.128 90.4794 53.584C90.6714 53.864 90.7674 54.308 90.7674 54.916V58H89.9034V54.94C89.9034 54.532 89.8274 54.228 89.6754 54.028C89.4914 53.788 89.2194 53.668 88.8594 53.668C88.4914 53.668 88.1994 53.796 87.9834 54.052C87.7434 54.332 87.6234 54.78 87.6234 55.396V58H86.7594ZM96.0921 56.332L96.8121 56.728C96.6441 57.048 96.4401 57.316 96.2001 57.532C95.7441 57.94 95.1921 58.144 94.5441 58.144C93.8721 58.144 93.2921 57.928 92.8041 57.496C92.3241 57.056 92.0841 56.404 92.0841 55.54C92.0841 54.78 92.3001 54.152 92.7321 53.656C93.1721 53.152 93.7601 52.9 94.4961 52.9C95.3281 52.9 95.9561 53.204 96.3801 53.812C96.7161 54.292 96.8721 54.916 96.8481 55.684H92.9721C92.9801 56.188 93.1361 56.596 93.4401 56.908C93.7441 57.22 94.1161 57.376 94.5561 57.376C94.9481 57.376 95.2881 57.256 95.5761 57.016C95.8001 56.824 95.9721 56.596 96.0921 56.332ZM93.0321 54.964H95.9601C95.8881 54.572 95.7161 54.26 95.4441 54.028C95.1801 53.788 94.8641 53.668 94.4961 53.668C94.1361 53.668 93.8161 53.792 93.5361 54.04C93.2641 54.28 93.0961 54.588 93.0321 54.964ZM101.869 56.332L102.589 56.728C102.421 57.048 102.217 57.316 101.977 57.532C101.521 57.94 100.969 58.144 100.321 58.144C99.6494 58.144 99.0694 57.928 98.5814 57.496C98.1014 57.056 97.8614 56.404 97.8614 55.54C97.8614 54.78 98.0774 54.152 98.5094 53.656C98.9494 53.152 99.5374 52.9 100.273 52.9C101.105 52.9 101.733 53.204 102.157 53.812C102.493 54.292 102.649 54.916 102.625 55.684H98.7494C98.7574 56.188 98.9134 56.596 99.2174 56.908C99.5214 57.22 99.8934 57.376 100.333 57.376C100.725 57.376 101.065 57.256 101.353 57.016C101.577 56.824 101.749 56.596 101.869 56.332ZM98.8094 54.964H101.737C101.665 54.572 101.493 54.26 101.221 54.028C100.957 53.788 100.641 53.668 100.273 53.668C99.9134 53.668 99.5934 53.792 99.3134 54.04C99.0414 54.28 98.8734 54.588 98.8094 54.964ZM103.951 49.252H104.815V58H103.951V49.252ZM109.207 53.8L108.499 54.172C108.363 53.836 108.131 53.668 107.803 53.668C107.635 53.668 107.491 53.716 107.371 53.812C107.259 53.908 107.203 54.048 107.203 54.232C107.203 54.4 107.255 54.528 107.359 54.616C107.471 54.696 107.687 54.804 108.007 54.94C108.639 55.204 109.055 55.46 109.255 55.708C109.431 55.924 109.519 56.192 109.519 56.512C109.519 57.016 109.355 57.416 109.027 57.712C108.707 58 108.299 58.144 107.803 58.144C107.707 58.144 107.603 58.132 107.491 58.108C107.379 58.092 107.223 58.052 107.023 57.988C106.831 57.916 106.647 57.784 106.471 57.592C106.295 57.4 106.159 57.16 106.063 56.872L106.807 56.56C107.007 57.104 107.343 57.376 107.815 57.376C108.079 57.376 108.279 57.296 108.415 57.136C108.559 56.976 108.631 56.792 108.631 56.584C108.631 56.472 108.611 56.376 108.571 56.296C108.539 56.208 108.479 56.132 108.391 56.068C108.311 56.004 108.231 55.952 108.151 55.912C108.079 55.872 107.971 55.82 107.827 55.756C107.187 55.476 106.783 55.232 106.615 55.024C106.463 54.832 106.387 54.588 106.387 54.292C106.387 53.86 106.519 53.52 106.783 53.272C107.055 53.024 107.407 52.9 107.839 52.9C108.471 52.9 108.927 53.2 109.207 53.8Z" fill="black"/>
<path d="M146.119 58H145.207L146.539 49.552L149.611 56.308L152.743 49.54L153.991 58H153.079L152.323 52.432L149.599 58.336L146.911 52.432L146.119 58ZM159.443 53.728V53.02H160.307V58H159.443V57.304C159.011 57.864 158.443 58.144 157.739 58.144C157.067 58.144 156.495 57.912 156.023 57.448C155.551 56.984 155.315 56.336 155.315 55.504C155.315 54.688 155.547 54.052 156.011 53.596C156.483 53.132 157.059 52.9 157.739 52.9C158.459 52.9 159.027 53.176 159.443 53.728ZM157.835 53.668C157.379 53.668 156.991 53.832 156.671 54.16C156.359 54.48 156.203 54.928 156.203 55.504C156.203 56.056 156.347 56.508 156.635 56.86C156.931 57.204 157.331 57.376 157.835 57.376C158.339 57.376 158.739 57.196 159.035 56.836C159.339 56.476 159.491 56.036 159.491 55.516C159.491 54.924 159.323 54.468 158.987 54.148C158.651 53.828 158.267 53.668 157.835 53.668ZM163.695 53.812H162.831V58H161.967V53.812H161.439V53.02H161.967V51.22H162.831V53.02H163.695V53.812ZM168.205 56.332L168.925 56.728C168.757 57.048 168.553 57.316 168.313 57.532C167.857 57.94 167.305 58.144 166.657 58.144C165.985 58.144 165.405 57.928 164.917 57.496C164.437 57.056 164.197 56.404 164.197 55.54C164.197 54.78 164.413 54.152 164.845 53.656C165.285 53.152 165.873 52.9 166.609 52.9C167.441 52.9 168.069 53.204 168.493 53.812C168.829 54.292 168.985 54.916 168.961 55.684H165.085C165.093 56.188 165.249 56.596 165.553 56.908C165.857 57.22 166.229 57.376 166.669 57.376C167.061 57.376 167.401 57.256 167.689 57.016C167.913 56.824 168.085 56.596 168.205 56.332ZM165.145 54.964H168.073C168.001 54.572 167.829 54.26 167.557 54.028C167.293 53.788 166.977 53.668 166.609 53.668C166.249 53.668 165.929 53.792 165.649 54.04C165.377 54.28 165.209 54.588 165.145 54.964ZM170.287 58V53.02H171.151V53.56C171.431 53.12 171.807 52.9 172.279 52.9C172.519 52.9 172.775 52.968 173.047 53.104L172.639 53.884C172.479 53.772 172.311 53.716 172.135 53.716C171.831 53.716 171.599 53.82 171.439 54.028C171.247 54.284 171.151 54.732 171.151 55.372V58H170.287ZM173.837 53.02H174.701V58H173.837V53.02ZM173.837 51.568C173.717 51.448 173.657 51.304 173.657 51.136C173.657 50.968 173.717 50.824 173.837 50.704C173.957 50.584 174.101 50.524 174.269 50.524C174.437 50.524 174.581 50.584 174.701 50.704C174.821 50.824 174.881 50.968 174.881 51.136C174.881 51.304 174.821 51.448 174.701 51.568C174.581 51.688 174.437 51.748 174.269 51.748C174.101 51.748 173.957 51.688 173.837 51.568ZM180.15 53.728V53.02H181.014V58H180.15V57.304C179.718 57.864 179.15 58.144 178.446 58.144C177.774 58.144 177.202 57.912 176.73 57.448C176.258 56.984 176.022 56.336 176.022 55.504C176.022 54.688 176.254 54.052 176.718 53.596C177.19 53.132 177.766 52.9 178.446 52.9C179.166 52.9 179.734 53.176 180.15 53.728ZM178.542 53.668C178.086 53.668 177.698 53.832 177.378 54.16C177.066 54.48 176.91 54.928 176.91 55.504C176.91 56.056 177.054 56.508 177.342 56.86C177.638 57.204 178.038 57.376 178.542 57.376C179.046 57.376 179.446 57.196 179.742 56.836C180.046 56.476 180.198 56.036 180.198 55.516C180.198 54.924 180.03 54.468 179.694 54.148C179.358 53.828 178.974 53.668 178.542 53.668ZM182.65 49.252H183.514V58H182.65V49.252ZM187.906 53.8L187.198 54.172C187.062 53.836 186.83 53.668 186.502 53.668C186.334 53.668 186.19 53.716 186.07 53.812C185.958 53.908 185.902 54.048 185.902 54.232C185.902 54.4 185.954 54.528 186.058 54.616C186.17 54.696 186.386 54.804 186.706 54.94C187.338 55.204 187.754 55.46 187.954 55.708C188.13 55.924 188.218 56.192 188.218 56.512C188.218 57.016 188.054 57.416 187.726 57.712C187.406 58 186.998 58.144 186.502 58.144C186.406 58.144 186.302 58.132 186.19 58.108C186.078 58.092 185.922 58.052 185.722 57.988C185.53 57.916 185.346 57.784 185.17 57.592C184.994 57.4 184.858 57.16 184.762 56.872L185.506 56.56C185.706 57.104 186.042 57.376 186.514 57.376C186.778 57.376 186.978 57.296 187.114 57.136C187.258 56.976 187.33 56.792 187.33 56.584C187.33 56.472 187.31 56.376 187.27 56.296C187.238 56.208 187.178 56.132 187.09 56.068C187.01 56.004 186.93 55.952 186.85 55.912C186.778 55.872 186.67 55.82 186.526 55.756C185.886 55.476 185.482 55.232 185.314 55.024C185.162 54.832 185.086 54.588 185.086 54.292C185.086 53.86 185.218 53.52 185.482 53.272C185.754 53.024 186.106 52.9 186.538 52.9C187.17 52.9 187.626 53.2 187.906 53.8Z" fill="black"/>
<path d="M233.771 51.112L233.063 51.58C232.935 51.332 232.779 51.132 232.595 50.98C232.355 50.796 232.055 50.704 231.695 50.704C231.295 50.704 230.971 50.82 230.723 51.052C230.475 51.276 230.351 51.572 230.351 51.94C230.351 52.212 230.451 52.444 230.651 52.636C230.811 52.796 231.091 52.964 231.491 53.14L232.259 53.476C232.827 53.724 233.239 53.976 233.495 54.232C233.879 54.616 234.071 55.1 234.071 55.684C234.071 56.412 233.831 57.004 233.351 57.46C232.871 57.916 232.267 58.144 231.539 58.144C230.819 58.144 230.239 57.928 229.799 57.496C229.439 57.144 229.191 56.672 229.055 56.08L229.919 55.84C229.975 56.24 230.135 56.58 230.399 56.86C230.695 57.156 231.079 57.304 231.551 57.304C232.063 57.304 232.459 57.152 232.739 56.848C233.019 56.536 233.159 56.16 233.159 55.72C233.159 55.336 233.027 55.024 232.763 54.784C232.611 54.64 232.291 54.456 231.803 54.232L231.083 53.896C230.595 53.672 230.239 53.452 230.015 53.236C229.647 52.884 229.463 52.448 229.463 51.928C229.463 51.312 229.671 50.816 230.087 50.44C230.511 50.056 231.051 49.864 231.707 49.864C232.203 49.864 232.631 49.984 232.991 50.224C233.319 50.44 233.579 50.736 233.771 51.112ZM239.178 56.332L239.898 56.728C239.73 57.048 239.526 57.316 239.286 57.532C238.83 57.94 238.278 58.144 237.63 58.144C236.958 58.144 236.378 57.928 235.89 57.496C235.41 57.056 235.17 56.404 235.17 55.54C235.17 54.78 235.386 54.152 235.818 53.656C236.258 53.152 236.846 52.9 237.582 52.9C238.414 52.9 239.042 53.204 239.466 53.812C239.802 54.292 239.958 54.916 239.934 55.684H236.058C236.066 56.188 236.222 56.596 236.526 56.908C236.83 57.22 237.202 57.376 237.642 57.376C238.034 57.376 238.374 57.256 238.662 57.016C238.886 56.824 239.058 56.596 239.178 56.332ZM236.118 54.964H239.046C238.974 54.572 238.802 54.26 238.53 54.028C238.266 53.788 237.95 53.668 237.582 53.668C237.222 53.668 236.902 53.792 236.622 54.04C236.35 54.28 236.182 54.588 236.118 54.964ZM245.075 53.728V53.02H245.939V58H245.075V57.304C244.643 57.864 244.075 58.144 243.371 58.144C242.699 58.144 242.127 57.912 241.655 57.448C241.183 56.984 240.947 56.336 240.947 55.504C240.947 54.688 241.179 54.052 241.643 53.596C242.115 53.132 242.691 52.9 243.371 52.9C244.091 52.9 244.659 53.176 245.075 53.728ZM243.467 53.668C243.011 53.668 242.623 53.832 242.303 54.16C241.991 54.48 241.835 54.928 241.835 55.504C241.835 56.056 241.979 56.508 242.267 56.86C242.563 57.204 242.963 57.376 243.467 57.376C243.971 57.376 244.371 57.196 244.667 56.836C244.971 56.476 245.123 56.036 245.123 55.516C245.123 54.924 244.955 54.468 244.619 54.148C244.283 53.828 243.899 53.668 243.467 53.668ZM249.328 53.812H248.464V58H247.6V53.812H247.072V53.02H247.6V51.22H248.464V53.02H249.328V53.812ZM252.902 53.8L252.194 54.172C252.058 53.836 251.826 53.668 251.498 53.668C251.33 53.668 251.186 53.716 251.066 53.812C250.954 53.908 250.898 54.048 250.898 54.232C250.898 54.4 250.95 54.528 251.054 54.616C251.166 54.696 251.382 54.804 251.702 54.94C252.334 55.204 252.75 55.46 252.95 55.708C253.126 55.924 253.214 56.192 253.214 56.512C253.214 57.016 253.05 57.416 252.722 57.712C252.402 58 251.994 58.144 251.498 58.144C251.402 58.144 251.298 58.132 251.186 58.108C251.074 58.092 250.918 58.052 250.718 57.988C250.526 57.916 250.342 57.784 250.166 57.592C249.99 57.4 249.854 57.16 249.758 56.872L250.502 56.56C250.702 57.104 251.038 57.376 251.51 57.376C251.774 57.376 251.974 57.296 252.11 57.136C252.254 56.976 252.326 56.792 252.326 56.584C252.326 56.472 252.306 56.376 252.266 56.296C252.234 56.208 252.174 56.132 252.086 56.068C252.006 56.004 251.926 55.952 251.846 55.912C251.774 55.872 251.666 55.82 251.522 55.756C250.882 55.476 250.478 55.232 250.31 55.024C250.158 54.832 250.082 54.588 250.082 54.292C250.082 53.86 250.214 53.52 250.478 53.272C250.75 53.024 251.102 52.9 251.534 52.9C252.166 52.9 252.622 53.2 252.902 53.8Z" fill="black"/>
<path d="M304.189 56.956C303.389 57.748 302.405 58.144 301.237 58.144C300.069 58.144 299.081 57.748 298.273 56.956C297.473 56.164 297.073 55.18 297.073 54.004C297.073 52.82 297.477 51.836 298.285 51.052C299.093 50.26 300.077 49.864 301.237 49.864C302.397 49.864 303.381 50.26 304.189 51.052C304.997 51.836 305.401 52.82 305.401 54.004C305.401 55.18 304.997 56.164 304.189 56.956ZM303.541 51.664C302.909 51.024 302.141 50.704 301.237 50.704C300.333 50.704 299.565 51.024 298.933 51.664C298.301 52.304 297.985 53.084 297.985 54.004C297.985 54.924 298.301 55.704 298.933 56.344C299.565 56.984 300.333 57.304 301.237 57.304C302.141 57.304 302.909 56.984 303.541 56.344C304.173 55.704 304.489 54.924 304.489 54.004C304.489 53.084 304.173 52.304 303.541 51.664ZM307.68 57.304V60.76H306.816V53.02H307.68V53.716C308.12 53.172 308.688 52.9 309.384 52.9C310.128 52.9 310.716 53.164 311.148 53.692C311.588 54.212 311.808 54.828 311.808 55.54C311.808 56.26 311.592 56.876 311.16 57.388C310.728 57.892 310.148 58.144 309.42 58.144C308.692 58.144 308.112 57.864 307.68 57.304ZM309.3 57.376C309.788 57.376 310.18 57.2 310.476 56.848C310.772 56.488 310.92 56.052 310.92 55.54C310.92 54.964 310.756 54.508 310.428 54.172C310.1 53.836 309.72 53.668 309.288 53.668C308.856 53.668 308.472 53.836 308.136 54.172C307.8 54.508 307.632 54.96 307.632 55.528C307.632 56.048 307.784 56.488 308.088 56.848C308.4 57.2 308.804 57.376 309.3 57.376ZM314.884 53.812H314.02V58H313.156V53.812H312.628V53.02H313.156V51.22H314.02V53.02H314.884V53.812ZM315.699 53.02H316.563V58H315.699V53.02ZM315.699 51.568C315.579 51.448 315.519 51.304 315.519 51.136C315.519 50.968 315.579 50.824 315.699 50.704C315.819 50.584 315.963 50.524 316.131 50.524C316.299 50.524 316.443 50.584 316.563 50.704C316.683 50.824 316.743 50.968 316.743 51.136C316.743 51.304 316.683 51.448 316.563 51.568C316.443 51.688 316.299 51.748 316.131 51.748C315.963 51.748 315.819 51.688 315.699 51.568ZM322.407 57.4C321.911 57.896 321.283 58.144 320.523 58.144C319.763 58.144 319.131 57.896 318.627 57.4C318.131 56.904 317.883 56.28 317.883 55.528C317.883 54.768 318.131 54.14 318.627 53.644C319.131 53.148 319.763 52.9 320.523 52.9C321.283 52.9 321.911 53.148 322.407 53.644C322.911 54.14 323.163 54.768 323.163 55.528C323.163 56.28 322.911 56.904 322.407 57.4ZM321.759 54.16C321.423 53.832 321.011 53.668 320.523 53.668C320.035 53.668 319.619 53.836 319.275 54.172C318.939 54.5 318.771 54.952 318.771 55.528C318.771 56.104 318.943 56.556 319.287 56.884C319.631 57.212 320.043 57.376 320.523 57.376C321.003 57.376 321.415 57.212 321.759 56.884C322.103 56.556 322.275 56.104 322.275 55.528C322.275 54.944 322.103 54.488 321.759 54.16ZM324.488 58V53.02H325.352V53.596C325.704 53.132 326.18 52.9 326.78 52.9C327.42 52.9 327.896 53.128 328.208 53.584C328.4 53.864 328.496 54.308 328.496 54.916V58H327.632V54.94C327.632 54.532 327.556 54.228 327.404 54.028C327.22 53.788 326.948 53.668 326.588 53.668C326.22 53.668 325.928 53.796 325.712 54.052C325.472 54.332 325.352 54.78 325.352 55.396V58H324.488ZM332.885 53.8L332.177 54.172C332.041 53.836 331.809 53.668 331.481 53.668C331.313 53.668 331.169 53.716 331.049 53.812C330.937 53.908 330.881 54.048 330.881 54.232C330.881 54.4 330.933 54.528 331.037 54.616C331.149 54.696 331.365 54.804 331.685 54.94C332.317 55.204 332.733 55.46 332.933 55.708C333.109 55.924 333.197 56.192 333.197 56.512C333.197 57.016 333.033 57.416 332.705 57.712C332.385 58 331.977 58.144 331.481 58.144C331.385 58.144 331.281 58.132 331.169 58.108C331.057 58.092 330.901 58.052 330.701 57.988C330.509 57.916 330.325 57.784 330.149 57.592C329.973 57.4 329.837 57.16 329.741 56.872L330.485 56.56C330.685 57.104 331.021 57.376 331.493 57.376C331.757 57.376 331.957 57.296 332.093 57.136C332.237 56.976 332.309 56.792 332.309 56.584C332.309 56.472 332.289 56.376 332.249 56.296C332.217 56.208 332.157 56.132 332.069 56.068C331.989 56.004 331.909 55.952 331.829 55.912C331.757 55.872 331.649 55.82 331.505 55.756C330.865 55.476 330.461 55.232 330.293 55.024C330.141 54.832 330.065 54.588 330.065 54.292C330.065 53.86 330.197 53.52 330.461 53.272C330.733 53.024 331.085 52.9 331.517 52.9C332.149 52.9 332.605 53.2 332.885 53.8Z" fill="black"/>
<path d="M367.278 50.836H365.334V58H364.446V50.836H362.502V49.996H367.278V50.836ZM370.948 56.332L371.668 56.728C371.5 57.048 371.296 57.316 371.056 57.532C370.6 57.94 370.048 58.144 369.4 58.144C368.728 58.144 368.148 57.928 367.66 57.496C367.18 57.056 366.94 56.404 366.94 55.54C366.94 54.78 367.156 54.152 367.588 53.656C368.028 53.152 368.616 52.9 369.352 52.9C370.184 52.9 370.812 53.204 371.236 53.812C371.572 54.292 371.728 54.916 371.704 55.684H367.828C367.836 56.188 367.992 56.596 368.296 56.908C368.6 57.22 368.972 57.376 369.412 57.376C369.804 57.376 370.144 57.256 370.432 57.016C370.656 56.824 370.828 56.596 370.948 56.332ZM367.888 54.964H370.816C370.744 54.572 370.572 54.26 370.3 54.028C370.036 53.788 369.72 53.668 369.352 53.668C368.992 53.668 368.672 53.792 368.392 54.04C368.12 54.28 367.952 54.588 367.888 54.964ZM376.929 53.38V54.412C376.537 53.916 376.017 53.668 375.369 53.668C374.881 53.668 374.465 53.836 374.121 54.172C373.777 54.5 373.605 54.952 373.605 55.528C373.605 56.104 373.777 56.556 374.121 56.884C374.465 57.212 374.877 57.376 375.357 57.376C375.997 57.376 376.533 57.116 376.965 56.596V57.628C376.493 57.972 375.965 58.144 375.381 58.144C374.605 58.144 373.965 57.9 373.461 57.412C372.965 56.916 372.717 56.292 372.717 55.54C372.717 54.78 372.969 54.152 373.473 53.656C373.977 53.152 374.613 52.9 375.381 52.9C375.957 52.9 376.473 53.06 376.929 53.38ZM378.291 58V49.252H379.155V53.596C379.507 53.132 379.983 52.9 380.583 52.9C381.223 52.9 381.699 53.128 382.011 53.584C382.203 53.864 382.299 54.308 382.299 54.916V58H381.435V54.94C381.435 54.532 381.359 54.228 381.207 54.028C381.023 53.788 380.751 53.668 380.391 53.668C380.023 53.668 379.731 53.796 379.515 54.052C379.275 54.332 379.155 54.78 379.155 55.396V58H378.291ZM383.927 58V53.02H384.791V53.596C385.143 53.132 385.619 52.9 386.219 52.9C386.859 52.9 387.335 53.128 387.647 53.584C387.839 53.864 387.935 54.308 387.935 54.916V58H387.071V54.94C387.071 54.532 386.995 54.228 386.843 54.028C386.659 53.788 386.387 53.668 386.027 53.668C385.659 53.668 385.367 53.796 385.151 54.052C384.911 54.332 384.791 54.78 384.791 55.396V58H383.927ZM393.776 57.4C393.28 57.896 392.652 58.144 391.892 58.144C391.132 58.144 390.5 57.896 389.996 57.4C389.5 56.904 389.252 56.28 389.252 55.528C389.252 54.768 389.5 54.14 389.996 53.644C390.5 53.148 391.132 52.9 391.892 52.9C392.652 52.9 393.28 53.148 393.776 53.644C394.28 54.14 394.532 54.768 394.532 55.528C394.532 56.28 394.28 56.904 393.776 57.4ZM393.128 54.16C392.792 53.832 392.38 53.668 391.892 53.668C391.404 53.668 390.988 53.836 390.644 54.172C390.308 54.5 390.14 54.952 390.14 55.528C390.14 56.104 390.312 56.556 390.656 56.884C391 57.212 391.412 57.376 391.892 57.376C392.372 57.376 392.784 57.212 393.128 56.884C393.472 56.556 393.644 56.104 393.644 55.528C393.644 54.944 393.472 54.488 393.128 54.16ZM395.857 49.252H396.721V58H395.857V49.252ZM402.565 57.4C402.069 57.896 401.441 58.144 400.681 58.144C399.921 58.144 399.289 57.896 398.785 57.4C398.289 56.904 398.041 56.28 398.041 55.528C398.041 54.768 398.289 54.14 398.785 53.644C399.289 53.148 399.921 52.9 400.681 52.9C401.441 52.9 402.069 53.148 402.565 53.644C403.069 54.14 403.321 54.768 403.321 55.528C403.321 56.28 403.069 56.904 402.565 57.4ZM401.917 54.16C401.581 53.832 401.169 53.668 400.681 53.668C400.193 53.668 399.777 53.836 399.433 54.172C399.097 54.5 398.929 54.952 398.929 55.528C398.929 56.104 399.101 56.556 399.445 56.884C399.789 57.212 400.201 57.376 400.681 57.376C401.161 57.376 401.573 57.212 401.917 56.884C402.261 56.556 402.433 56.104 402.433 55.528C402.433 54.944 402.261 54.488 401.917 54.16ZM408.462 53.728V53.02H409.326V57.88C409.326 58.752 409.166 59.404 408.846 59.836C408.39 60.452 407.726 60.76 406.854 60.76C406.118 60.76 405.526 60.536 405.078 60.088C404.646 59.656 404.43 59.12 404.43 58.48H405.282C405.282 58.88 405.41 59.224 405.666 59.512C405.954 59.832 406.354 59.992 406.866 59.992C407.466 59.992 407.906 59.76 408.186 59.296C408.37 59 408.462 58.576 408.462 58.024V57.304C408.03 57.864 407.462 58.144 406.758 58.144C406.07 58.144 405.502 57.92 405.054 57.472C404.574 56.992 404.334 56.336 404.334 55.504C404.334 54.696 404.574 54.052 405.054 53.572C405.518 53.124 406.086 52.9 406.758 52.9C407.47 52.9 408.038 53.176 408.462 53.728ZM406.854 53.668C406.414 53.668 406.038 53.824 405.726 54.136C405.39 54.48 405.222 54.936 405.222 55.504C405.222 56.136 405.41 56.624 405.786 56.968C406.082 57.24 406.438 57.376 406.854 57.376C407.302 57.376 407.666 57.236 407.946 56.956C408.322 56.596 408.51 56.116 408.51 55.516C408.51 54.916 408.334 54.448 407.982 54.112C407.686 53.816 407.31 53.668 406.854 53.668ZM410.95 60.76L412.534 57.532L410.242 53.02H411.226L412.99 56.584L414.61 53.02H415.57L411.91 60.76H410.95Z" fill="black"/>
<path d="M442.278 49.996H443.73C444.642 49.996 445.314 50.184 445.746 50.56C446.234 50.976 446.478 51.548 446.478 52.276C446.478 52.9 446.266 53.432 445.842 53.872C445.426 54.304 444.794 54.52 443.946 54.52H443.166V58H442.278V49.996ZM443.166 50.836V53.68H443.898C444.426 53.68 444.838 53.552 445.134 53.296C445.438 53.04 445.59 52.684 445.59 52.228C445.59 51.3 445.002 50.836 443.826 50.836H443.166ZM451.116 53.728V53.02H451.98V58H451.116V57.304C450.684 57.864 450.116 58.144 449.412 58.144C448.74 58.144 448.168 57.912 447.696 57.448C447.224 56.984 446.988 56.336 446.988 55.504C446.988 54.688 447.22 54.052 447.684 53.596C448.156 53.132 448.732 52.9 449.412 52.9C450.132 52.9 450.7 53.176 451.116 53.728ZM449.508 53.668C449.052 53.668 448.664 53.832 448.344 54.16C448.032 54.48 447.876 54.928 447.876 55.504C447.876 56.056 448.02 56.508 448.308 56.86C448.604 57.204 449.004 57.376 449.508 57.376C450.012 57.376 450.412 57.196 450.708 56.836C451.012 56.476 451.164 56.036 451.164 55.516C451.164 54.924 450.996 54.468 450.66 54.148C450.324 53.828 449.94 53.668 449.508 53.668ZM457.517 53.38V54.412C457.125 53.916 456.605 53.668 455.957 53.668C455.469 53.668 455.053 53.836 454.709 54.172C454.365 54.5 454.193 54.952 454.193 55.528C454.193 56.104 454.365 56.556 454.709 56.884C455.053 57.212 455.465 57.376 455.945 57.376C456.585 57.376 457.121 57.116 457.553 56.596V57.628C457.081 57.972 456.553 58.144 455.969 58.144C455.193 58.144 454.553 57.9 454.049 57.412C453.553 56.916 453.305 56.292 453.305 55.54C453.305 54.78 453.557 54.152 454.061 53.656C454.565 53.152 455.201 52.9 455.969 52.9C456.545 52.9 457.061 53.06 457.517 53.38ZM458.879 49.252H459.743V54.868L461.567 53.02H462.695L460.559 55.156L463.079 58H461.951L459.959 55.732L459.743 55.948V58H458.879V49.252ZM467.757 53.728V53.02H468.621V58H467.757V57.304C467.325 57.864 466.757 58.144 466.053 58.144C465.381 58.144 464.809 57.912 464.337 57.448C463.865 56.984 463.629 56.336 463.629 55.504C463.629 54.688 463.861 54.052 464.325 53.596C464.797 53.132 465.373 52.9 466.053 52.9C466.773 52.9 467.341 53.176 467.757 53.728ZM466.149 53.668C465.693 53.668 465.305 53.832 464.985 54.16C464.673 54.48 464.517 54.928 464.517 55.504C464.517 56.056 464.661 56.508 464.949 56.86C465.245 57.204 465.645 57.376 466.149 57.376C466.653 57.376 467.053 57.196 467.349 56.836C467.653 56.476 467.805 56.036 467.805 55.516C467.805 54.924 467.637 54.468 467.301 54.148C466.965 53.828 466.581 53.668 466.149 53.668ZM474.073 53.728V53.02H474.937V57.88C474.937 58.752 474.777 59.404 474.457 59.836C474.001 60.452 473.337 60.76 472.465 60.76C471.729 60.76 471.137 60.536 470.689 60.088C470.257 59.656 470.041 59.12 470.041 58.48H470.893C470.893 58.88 471.021 59.224 471.277 59.512C471.565 59.832 471.965 59.992 472.477 59.992C473.077 59.992 473.517 59.76 473.797 59.296C473.981 59 474.073 58.576 474.073 58.024V57.304C473.641 57.864 473.073 58.144 472.369 58.144C471.681 58.144 471.113 57.92 470.665 57.472C470.185 56.992 469.945 56.336 469.945 55.504C469.945 54.696 470.185 54.052 470.665 53.572C471.129 53.124 471.697 52.9 472.369 52.9C473.081 52.9 473.649 53.176 474.073 53.728ZM472.465 53.668C472.025 53.668 471.649 53.824 471.337 54.136C471.001 54.48 470.833 54.936 470.833 55.504C470.833 56.136 471.021 56.624 471.397 56.968C471.693 57.24 472.049 57.376 472.465 57.376C472.913 57.376 473.277 57.236 473.557 56.956C473.933 56.596 474.121 56.116 474.121 55.516C474.121 54.916 473.945 54.448 473.593 54.112C473.297 53.816 472.921 53.668 472.465 53.668ZM480.27 56.332L480.99 56.728C480.822 57.048 480.618 57.316 480.378 57.532C479.922 57.94 479.37 58.144 478.722 58.144C478.05 58.144 477.47 57.928 476.982 57.496C476.502 57.056 476.262 56.404 476.262 55.54C476.262 54.78 476.478 54.152 476.91 53.656C477.35 53.152 477.938 52.9 478.674 52.9C479.506 52.9 480.134 53.204 480.558 53.812C480.894 54.292 481.05 54.916 481.026 55.684H477.15C477.158 56.188 477.314 56.596 477.618 56.908C477.922 57.22 478.294 57.376 478.734 57.376C479.126 57.376 479.466 57.256 479.754 57.016C479.978 56.824 480.15 56.596 480.27 56.332ZM477.21 54.964H480.138C480.066 54.572 479.894 54.26 479.622 54.028C479.358 53.788 479.042 53.668 478.674 53.668C478.314 53.668 477.994 53.792 477.714 54.04C477.442 54.28 477.274 54.588 477.21 54.964ZM485.111 53.8L484.403 54.172C484.267 53.836 484.035 53.668 483.707 53.668C483.539 53.668 483.395 53.716 483.275 53.812C483.163 53.908 483.107 54.048 483.107 54.232C483.107 54.4 483.159 54.528 483.263 54.616C483.375 54.696 483.591 54.804 483.911 54.94C484.543 55.204 484.959 55.46 485.159 55.708C485.335 55.924 485.423 56.192 485.423 56.512C485.423 57.016 485.259 57.416 484.931 57.712C484.611 58 484.203 58.144 483.707 58.144C483.611 58.144 483.507 58.132 483.395 58.108C483.283 58.092 483.127 58.052 482.927 57.988C482.735 57.916 482.551 57.784 482.375 57.592C482.199 57.4 482.063 57.16 481.967 56.872L482.711 56.56C482.911 57.104 483.247 57.376 483.719 57.376C483.983 57.376 484.183 57.296 484.319 57.136C484.463 56.976 484.535 56.792 484.535 56.584C484.535 56.472 484.515 56.376 484.475 56.296C484.443 56.208 484.383 56.132 484.295 56.068C484.215 56.004 484.135 55.952 484.055 55.912C483.983 55.872 483.875 55.82 483.731 55.756C483.091 55.476 482.687 55.232 482.519 55.024C482.367 54.832 482.291 54.588 482.291 54.292C482.291 53.86 482.423 53.52 482.687 53.272C482.959 53.024 483.311 52.9 483.743 52.9C484.375 52.9 484.831 53.2 485.111 53.8Z" fill="black"/>
<path d="M515.614 58L514.678 55.744H511.27L510.31 58H509.326L513.01 49.612L516.598 58H515.614ZM511.618 54.904H514.33L512.986 51.7L511.618 54.904ZM521.411 53.38V54.412C521.019 53.916 520.499 53.668 519.851 53.668C519.363 53.668 518.947 53.836 518.603 54.172C518.259 54.5 518.087 54.952 518.087 55.528C518.087 56.104 518.259 56.556 518.603 56.884C518.947 57.212 519.359 57.376 519.839 57.376C520.479 57.376 521.015 57.116 521.447 56.596V57.628C520.975 57.972 520.447 58.144 519.863 58.144C519.087 58.144 518.447 57.9 517.943 57.412C517.447 56.916 517.199 56.292 517.199 55.54C517.199 54.78 517.451 54.152 517.955 53.656C518.459 53.152 519.095 52.9 519.863 52.9C520.439 52.9 520.955 53.06 521.411 53.38ZM526.673 53.38V54.412C526.281 53.916 525.761 53.668 525.113 53.668C524.625 53.668 524.209 53.836 523.865 54.172C523.521 54.5 523.349 54.952 523.349 55.528C523.349 56.104 523.521 56.556 523.865 56.884C524.209 57.212 524.621 57.376 525.101 57.376C525.741 57.376 526.277 57.116 526.709 56.596V57.628C526.237 57.972 525.709 58.144 525.125 58.144C524.349 58.144 523.709 57.9 523.205 57.412C522.709 56.916 522.461 56.292 522.461 55.54C522.461 54.78 522.713 54.152 523.217 53.656C523.721 53.152 524.357 52.9 525.125 52.9C525.701 52.9 526.217 53.06 526.673 53.38ZM531.731 56.332L532.451 56.728C532.283 57.048 532.079 57.316 531.839 57.532C531.383 57.94 530.831 58.144 530.183 58.144C529.511 58.144 528.931 57.928 528.443 57.496C527.963 57.056 527.723 56.404 527.723 55.54C527.723 54.78 527.939 54.152 528.371 53.656C528.811 53.152 529.399 52.9 530.135 52.9C530.967 52.9 531.595 53.204 532.019 53.812C532.355 54.292 532.511 54.916 532.487 55.684H528.611C528.619 56.188 528.775 56.596 529.079 56.908C529.383 57.22 529.755 57.376 530.195 57.376C530.587 57.376 530.927 57.256 531.215 57.016C531.439 56.824 531.611 56.596 531.731 56.332ZM528.671 54.964H531.599C531.527 54.572 531.355 54.26 531.083 54.028C530.819 53.788 530.503 53.668 530.135 53.668C529.775 53.668 529.455 53.792 529.175 54.04C528.903 54.28 528.735 54.588 528.671 54.964ZM536.572 53.8L535.864 54.172C535.728 53.836 535.496 53.668 535.168 53.668C535 53.668 534.856 53.716 534.736 53.812C534.624 53.908 534.568 54.048 534.568 54.232C534.568 54.4 534.62 54.528 534.724 54.616C534.836 54.696 535.052 54.804 535.372 54.94C536.004 55.204 536.42 55.46 536.62 55.708C536.796 55.924 536.884 56.192 536.884 56.512C536.884 57.016 536.72 57.416 536.392 57.712C536.072 58 535.664 58.144 535.168 58.144C535.072 58.144 534.968 58.132 534.856 58.108C534.744 58.092 534.588 58.052 534.388 57.988C534.196 57.916 534.012 57.784 533.836 57.592C533.66 57.4 533.524 57.16 533.428 56.872L534.172 56.56C534.372 57.104 534.708 57.376 535.18 57.376C535.444 57.376 535.644 57.296 535.78 57.136C535.924 56.976 535.996 56.792 535.996 56.584C535.996 56.472 535.976 56.376 535.936 56.296C535.904 56.208 535.844 56.132 535.756 56.068C535.676 56.004 535.596 55.952 535.516 55.912C535.444 55.872 535.336 55.82 535.192 55.756C534.552 55.476 534.148 55.232 533.98 55.024C533.828 54.832 533.752 54.588 533.752 54.292C533.752 53.86 533.884 53.52 534.148 53.272C534.42 53.024 534.772 52.9 535.204 52.9C535.836 52.9 536.292 53.2 536.572 53.8ZM540.791 53.8L540.083 54.172C539.947 53.836 539.715 53.668 539.387 53.668C539.219 53.668 539.075 53.716 538.955 53.812C538.843 53.908 538.787 54.048 538.787 54.232C538.787 54.4 538.839 54.528 538.943 54.616C539.055 54.696 539.271 54.804 539.591 54.94C540.223 55.204 540.639 55.46 540.839 55.708C541.015 55.924 541.103 56.192 541.103 56.512C541.103 57.016 540.939 57.416 540.611 57.712C540.291 58 539.883 58.144 539.387 58.144C539.291 58.144 539.187 58.132 539.075 58.108C538.963 58.092 538.807 58.052 538.607 57.988C538.415 57.916 538.231 57.784 538.055 57.592C537.879 57.4 537.743 57.16 537.647 56.872L538.391 56.56C538.591 57.104 538.927 57.376 539.399 57.376C539.663 57.376 539.863 57.296 539.999 57.136C540.143 56.976 540.215 56.792 540.215 56.584C540.215 56.472 540.195 56.376 540.155 56.296C540.123 56.208 540.063 56.132 539.975 56.068C539.895 56.004 539.815 55.952 539.735 55.912C539.663 55.872 539.555 55.82 539.411 55.756C538.771 55.476 538.367 55.232 538.199 55.024C538.047 54.832 537.971 54.588 537.971 54.292C537.971 53.86 538.103 53.52 538.367 53.272C538.639 53.024 538.991 52.9 539.423 52.9C540.055 52.9 540.511 53.2 540.791 53.8ZM546.462 57.4C545.966 57.896 545.338 58.144 544.578 58.144C543.818 58.144 543.186 57.896 542.682 57.4C542.186 56.904 541.938 56.28 541.938 55.528C541.938 54.768 542.186 54.14 542.682 53.644C543.186 53.148 543.818 52.9 544.578 52.9C545.338 52.9 545.966 53.148 546.462 53.644C546.966 54.14 547.218 54.768 547.218 55.528C547.218 56.28 546.966 56.904 546.462 57.4ZM545.814 54.16C545.478 53.832 545.066 53.668 544.578 53.668C544.09 53.668 543.674 53.836 543.33 54.172C542.994 54.5 542.826 54.952 542.826 55.528C542.826 56.104 542.998 56.556 543.342 56.884C543.686 57.212 544.098 57.376 544.578 57.376C545.058 57.376 545.47 57.212 545.814 56.884C546.158 56.556 546.33 56.104 546.33 55.528C546.33 54.944 546.158 54.488 545.814 54.16ZM548.543 58V53.02H549.407V53.56C549.687 53.12 550.063 52.9 550.535 52.9C550.775 52.9 551.031 52.968 551.303 53.104L550.895 53.884C550.735 53.772 550.567 53.716 550.391 53.716C550.087 53.716 549.855 53.82 549.695 54.028C549.503 54.284 549.407 54.732 549.407 55.372V58H548.543ZM552.093 53.02H552.957V58H552.093V53.02ZM552.093 51.568C551.973 51.448 551.913 51.304 551.913 51.136C551.913 50.968 551.973 50.824 552.093 50.704C552.213 50.584 552.357 50.524 552.525 50.524C552.693 50.524 552.837 50.584 552.957 50.704C553.077 50.824 553.137 50.968 553.137 51.136C553.137 51.304 553.077 51.448 552.957 51.568C552.837 51.688 552.693 51.748 552.525 51.748C552.357 51.748 552.213 51.688 552.093 51.568ZM558.285 56.332L559.005 56.728C558.837 57.048 558.633 57.316 558.393 57.532C557.937 57.94 557.385 58.144 556.737 58.144C556.065 58.144 555.485 57.928 554.997 57.496C554.517 57.056 554.277 56.404 554.277 55.54C554.277 54.78 554.493 54.152 554.925 53.656C555.365 53.152 555.953 52.9 556.689 52.9C557.521 52.9 558.149 53.204 558.573 53.812C558.909 54.292 559.065 54.916 559.041 55.684H555.165C555.173 56.188 555.329 56.596 555.633 56.908C555.937 57.22 556.309 57.376 556.749 57.376C557.141 57.376 557.481 57.256 557.769 57.016C557.993 56.824 558.165 56.596 558.285 56.332ZM555.225 54.964H558.153C558.081 54.572 557.909 54.26 557.637 54.028C557.373 53.788 557.057 53.668 556.689 53.668C556.329 53.668 556.009 53.792 555.729 54.04C555.457 54.28 555.289 54.588 555.225 54.964ZM563.127 53.8L562.419 54.172C562.283 53.836 562.051 53.668 561.723 53.668C561.555 53.668 561.411 53.716 561.291 53.812C561.179 53.908 561.123 54.048 561.123 54.232C561.123 54.4 561.175 54.528 561.279 54.616C561.391 54.696 561.607 54.804 561.927 54.94C562.559 55.204 562.975 55.46 563.175 55.708C563.351 55.924 563.439 56.192 563.439 56.512C563.439 57.016 563.275 57.416 562.947 57.712C562.627 58 562.219 58.144 561.723 58.144C561.627 58.144 561.523 58.132 561.411 58.108C561.299 58.092 561.143 58.052 560.943 57.988C560.751 57.916 560.567 57.784 560.391 57.592C560.215 57.4 560.079 57.16 559.983 56.872L560.727 56.56C560.927 57.104 561.263 57.376 561.735 57.376C561.999 57.376 562.199 57.296 562.335 57.136C562.479 56.976 562.551 56.792 562.551 56.584C562.551 56.472 562.531 56.376 562.491 56.296C562.459 56.208 562.399 56.132 562.311 56.068C562.231 56.004 562.151 55.952 562.071 55.912C561.999 55.872 561.891 55.82 561.747 55.756C561.107 55.476 560.703 55.232 560.535 55.024C560.383 54.832 560.307 54.588 560.307 54.292C560.307 53.86 560.439 53.52 560.703 53.272C560.975 53.024 561.327 52.9 561.759 52.9C562.391 52.9 562.847 53.2 563.127 53.8Z" fill="black"/>
<defs>
<clipPath id="clip0_19_12188">
<rect width="20" height="20" fill="white" transform="translate(453 9)"/>
</clipPath>
</defs>
</svg>
