<svg width="212" height="116" viewBox="0 0 212 116" fill="none" xmlns="http://www.w3.org/2000/svg">
<g filter="url(#filter0_d_19_12184)">
<path d="M10.8999 49.9C10.8999 33.3315 24.3314 19.9 40.8999 19.9H170.9C187.468 19.9 200.9 33.3315 200.9 49.9V115.9H10.8999V49.9Z" fill="black"/>
</g>
<path d="M59.7461 63.282H58.2131V63.072C58.2131 62.092 57.9611 61.35 57.4571 60.846C57.0091 60.398 56.4141 60.174 55.6721 60.174C54.9441 60.174 54.3631 60.391 53.9291 60.825C53.4111 61.315 53.1521 61.931 53.1521 62.673C53.1521 62.841 53.1661 63.016 53.1941 63.198C53.2361 63.38 53.2711 63.541 53.2991 63.681C53.3411 63.807 53.4041 63.975 53.4881 64.185C53.5861 64.395 53.6631 64.556 53.7191 64.668C53.7751 64.766 53.8661 64.941 53.9921 65.193C54.1181 65.445 54.2091 65.627 54.2651 65.739L54.5591 66.327H57.2051V67.503H55.0841C55.2381 67.909 55.3151 68.336 55.3151 68.784C55.3151 69.456 55.1121 70.114 54.7061 70.758L55.9451 71.22C56.7011 71.514 57.1911 71.661 57.4151 71.661C57.8351 71.661 58.2061 71.507 58.5281 71.199C58.8081 70.919 59.0251 70.59 59.1791 70.212L60.4601 70.968C60.2081 71.556 59.8651 72.032 59.4311 72.396C58.8571 72.886 58.2341 73.131 57.5621 73.131C57.0021 73.131 56.4001 73.005 55.7561 72.753L54.9371 72.438C54.2371 72.172 53.7121 72.039 53.3621 72.039C52.9421 72.039 52.5711 72.165 52.2491 72.417C51.9411 72.655 51.7311 72.907 51.6191 73.173L50.4221 72.354C50.7581 71.85 51.0871 71.465 51.4091 71.199C51.9131 70.779 52.4871 70.569 53.1311 70.569C53.5231 69.981 53.7191 69.379 53.7191 68.763C53.7191 68.343 53.6281 67.923 53.4461 67.503H51.0941V66.327H52.9001L52.4801 65.55C51.8641 64.416 51.5561 63.443 51.5561 62.631C51.5561 61.497 51.9271 60.559 52.6691 59.817C53.4111 59.075 54.4191 58.704 55.6931 58.704C56.8551 58.704 57.7861 59.054 58.4861 59.754C59.3261 60.566 59.7461 61.679 59.7461 63.093V63.282ZM66.8096 72.9V60.363H64.4576L65.2766 58.893H68.3636V72.9H66.8096ZM80.102 72.9H71.051L76.154 66.999C77.022 65.977 77.568 65.298 77.792 64.962C78.31 64.22 78.569 63.506 78.569 62.82C78.569 62.022 78.31 61.371 77.792 60.867C77.274 60.349 76.602 60.09 75.776 60.09C74.768 60.09 73.991 60.503 73.445 61.329C73.151 61.777 72.997 62.33 72.983 62.988H71.429C71.485 61.798 71.835 60.832 72.479 60.09C73.319 59.138 74.425 58.662 75.797 58.662C77.043 58.662 78.072 59.061 78.884 59.859C79.71 60.643 80.123 61.637 80.123 62.841C80.123 63.779 79.752 64.78 79.01 65.844C78.632 66.362 77.995 67.139 77.099 68.175L74.18 71.472H80.102V72.9ZM91.2162 58.893V60.321H86.7222L85.8192 63.345C86.0572 63.289 86.3512 63.261 86.7012 63.261C88.0872 63.261 89.2002 63.723 90.0402 64.647C90.8942 65.571 91.3212 66.726 91.3212 68.112C91.3212 69.624 90.8242 70.842 89.8302 71.766C88.8502 72.69 87.6462 73.152 86.2182 73.152C85.0142 73.152 83.9712 72.788 83.0892 72.06C82.5852 71.626 82.1792 71.15 81.8712 70.632L83.1102 69.75C83.3202 70.17 83.6352 70.548 84.0552 70.884C84.7412 71.444 85.4972 71.724 86.3232 71.724C87.3032 71.724 88.1222 71.374 88.7802 70.674C89.4382 69.974 89.7672 69.127 89.7672 68.133C89.7672 67.125 89.4382 66.299 88.7802 65.655C88.1362 65.011 87.3172 64.689 86.3232 64.689C85.4412 64.689 84.5382 65.011 83.6142 65.655L85.6512 58.893H91.2162ZM93.5968 75.693L95.3188 70.842L96.7048 71.346L94.5838 76.092L93.5968 75.693ZM102.215 62.358H100.661C100.703 61.616 100.92 60.93 101.312 60.3C102.012 59.208 103.097 58.662 104.567 58.662C105.813 58.662 106.779 59.033 107.465 59.775C108.165 60.517 108.515 61.406 108.515 62.442C108.515 63.912 107.913 64.948 106.709 65.55C106.891 65.62 107.066 65.718 107.234 65.844C107.416 65.956 107.633 66.138 107.885 66.39C108.137 66.642 108.34 66.992 108.494 67.44C108.648 67.874 108.725 68.371 108.725 68.931C108.725 70.205 108.312 71.227 107.486 71.997C106.674 72.767 105.652 73.152 104.42 73.152C103.594 73.152 102.824 72.963 102.11 72.585C101.396 72.193 100.864 71.577 100.514 70.737C100.332 70.289 100.227 69.799 100.199 69.267H101.753C101.823 69.841 101.991 70.31 102.257 70.674C102.733 71.374 103.454 71.724 104.42 71.724C105.19 71.724 105.841 71.451 106.373 70.905C106.905 70.345 107.171 69.673 107.171 68.889C107.171 67.741 106.709 66.957 105.785 66.537C105.323 66.313 104.791 66.215 104.189 66.243V64.857C104.791 64.899 105.323 64.801 105.785 64.563C106.569 64.157 106.961 63.464 106.961 62.484C106.961 61.798 106.765 61.231 106.373 60.783C105.981 60.321 105.379 60.09 104.567 60.09C103.783 60.09 103.181 60.356 102.761 60.888C102.439 61.308 102.257 61.798 102.215 62.358ZM120.05 58.893V60.321H115.556L114.653 63.345C114.891 63.289 115.185 63.261 115.535 63.261C116.921 63.261 118.034 63.723 118.874 64.647C119.728 65.571 120.155 66.726 120.155 68.112C120.155 69.624 119.658 70.842 118.664 71.766C117.684 72.69 116.48 73.152 115.052 73.152C113.848 73.152 112.805 72.788 111.923 72.06C111.419 71.626 111.013 71.15 110.705 70.632L111.944 69.75C112.154 70.17 112.469 70.548 112.889 70.884C113.575 71.444 114.331 71.724 115.157 71.724C116.137 71.724 116.956 71.374 117.614 70.674C118.272 69.974 118.601 69.127 118.601 68.133C118.601 67.125 118.272 66.299 117.614 65.655C116.97 65.011 116.151 64.689 115.157 64.689C114.275 64.689 113.372 65.011 112.448 65.655L114.485 58.893H120.05ZM128.983 58.557L130.159 59.439L126.946 63.912C127.338 63.786 127.751 63.723 128.185 63.723C129.515 63.723 130.6 64.164 131.44 65.046C132.294 65.928 132.721 67.027 132.721 68.343C132.721 69.743 132.266 70.898 131.356 71.808C130.46 72.704 129.312 73.152 127.912 73.152C126.876 73.152 125.973 72.907 125.203 72.417C124.447 71.913 123.901 71.311 123.565 70.611C123.229 69.897 123.061 69.155 123.061 68.385C123.061 67.321 123.446 66.25 124.216 65.172L128.983 58.557ZM127.891 71.724C128.843 71.724 129.627 71.409 130.243 70.779C130.859 70.135 131.167 69.337 131.167 68.385C131.167 67.447 130.852 66.677 130.222 66.075C129.606 65.459 128.822 65.151 127.87 65.151C126.918 65.151 126.134 65.459 125.518 66.075C124.916 66.691 124.615 67.461 124.615 68.385C124.615 69.337 124.916 70.135 125.518 70.779C126.134 71.409 126.925 71.724 127.891 71.724ZM135.521 72.795C135.311 72.585 135.206 72.34 135.206 72.06C135.206 71.78 135.311 71.535 135.521 71.325C135.731 71.115 135.976 71.01 136.256 71.01C136.536 71.01 136.781 71.115 136.991 71.325C137.201 71.535 137.306 71.78 137.306 72.06C137.306 72.34 137.201 72.585 136.991 72.795C136.781 73.005 136.536 73.11 136.256 73.11C135.976 73.11 135.731 73.005 135.521 72.795ZM148.196 71.052C147.23 72.452 146.033 73.152 144.605 73.152C143.177 73.152 141.98 72.452 141.014 71.052C140.076 69.694 139.607 67.979 139.607 65.907C139.607 63.835 140.076 62.12 141.014 60.762C141.98 59.362 143.177 58.662 144.605 58.662C146.033 58.662 147.23 59.362 148.196 60.762C149.134 62.12 149.603 63.835 149.603 65.907C149.603 67.979 149.134 69.694 148.196 71.052ZM147.02 61.644C146.376 60.608 145.571 60.09 144.605 60.09C143.639 60.09 142.834 60.608 142.19 61.644C141.504 62.736 141.161 64.157 141.161 65.907C141.161 67.657 141.504 69.078 142.19 70.17C142.834 71.206 143.639 71.724 144.605 71.724C145.571 71.724 146.376 71.206 147.02 70.17C147.706 69.078 148.049 67.657 148.049 65.907C148.049 64.157 147.706 62.736 147.02 61.644ZM160.131 71.052C159.165 72.452 157.968 73.152 156.54 73.152C155.112 73.152 153.915 72.452 152.949 71.052C152.011 69.694 151.542 67.979 151.542 65.907C151.542 63.835 152.011 62.12 152.949 60.762C153.915 59.362 155.112 58.662 156.54 58.662C157.968 58.662 159.165 59.362 160.131 60.762C161.069 62.12 161.538 63.835 161.538 65.907C161.538 67.979 161.069 69.694 160.131 71.052ZM158.955 61.644C158.311 60.608 157.506 60.09 156.54 60.09C155.574 60.09 154.769 60.608 154.125 61.644C153.439 62.736 153.096 64.157 153.096 65.907C153.096 67.657 153.439 69.078 154.125 70.17C154.769 71.206 155.574 71.724 156.54 71.724C157.506 71.724 158.311 71.206 158.955 70.17C159.641 69.078 159.984 67.657 159.984 65.907C159.984 64.157 159.641 62.736 158.955 61.644Z" fill="white"/>
<path d="M54.8334 45.66H53.1054V51.9H51.0294V45.66H49.3374V43.896H54.8334V45.66ZM58.2692 47.988C57.9412 47.988 57.6532 48.104 57.4052 48.336C57.1572 48.568 57.0332 48.86 57.0332 49.212C57.0332 49.532 57.1572 49.816 57.4052 50.064C57.6452 50.304 57.9332 50.424 58.2692 50.424C58.5972 50.424 58.8812 50.304 59.1212 50.064C59.3692 49.832 59.4932 49.548 59.4932 49.212C59.4932 48.876 59.3692 48.584 59.1212 48.336C58.8732 48.104 58.5892 47.988 58.2692 47.988ZM60.6572 47.244C61.2092 47.78 61.4852 48.436 61.4852 49.212C61.4852 49.988 61.2092 50.648 60.6572 51.192C60.0572 51.784 59.2572 52.08 58.2572 52.08C57.2652 52.08 56.4692 51.784 55.8692 51.192C55.3172 50.648 55.0412 49.988 55.0412 49.212C55.0412 48.436 55.3172 47.78 55.8692 47.244C56.4772 46.652 57.2732 46.356 58.2572 46.356C59.2332 46.356 60.0332 46.652 60.6572 47.244ZM65.8091 48.108H64.7171V51.9H62.7971V48.108H62.1851V46.536H62.7971V44.772H64.7171V46.536H65.8091V48.108ZM70.6826 47.052V46.536H72.6026V51.9H70.6826V51.312C70.3146 51.824 69.7586 52.08 69.0146 52.08C68.2626 52.08 67.6186 51.796 67.0826 51.228C66.5706 50.684 66.3146 50.028 66.3146 49.26C66.3146 48.38 66.5906 47.664 67.1426 47.112C67.6466 46.608 68.2906 46.356 69.0746 46.356C69.7306 46.356 70.2666 46.588 70.6826 47.052ZM69.5066 47.988C69.1866 47.988 68.9066 48.104 68.6666 48.336C68.4106 48.584 68.2826 48.876 68.2826 49.212C68.2826 49.564 68.4066 49.856 68.6546 50.088C68.9106 50.328 69.1986 50.448 69.5186 50.448C69.8466 50.448 70.1346 50.324 70.3826 50.076C70.6226 49.836 70.7426 49.548 70.7426 49.212C70.7426 48.868 70.6186 48.576 70.3706 48.336C70.1226 48.104 69.8346 47.988 69.5066 47.988ZM73.9251 43.152H75.8451V51.9H73.9251V43.152ZM83.5126 49.248H82.2046V51.9H80.1286V43.896H83.4406C84.2966 43.896 84.9726 44.136 85.4686 44.616C85.9646 45.096 86.2126 45.744 86.2126 46.56C86.2126 47.424 85.9766 48.088 85.5046 48.552C85.0326 49.016 84.3686 49.248 83.5126 49.248ZM82.2046 45.576V47.568H82.9006C83.3006 47.568 83.5926 47.484 83.7766 47.316C83.9526 47.164 84.0406 46.92 84.0406 46.584C84.0406 46.264 83.9606 46.024 83.8006 45.864C83.6166 45.672 83.3206 45.576 82.9126 45.576H82.2046ZM87.1322 51.9V46.536H89.0522V47.412C89.2282 47.076 89.4802 46.828 89.8082 46.668C90.0722 46.524 90.4042 46.452 90.8042 46.452C90.8202 46.452 90.8402 46.456 90.8642 46.464C90.8882 46.464 90.9282 46.468 90.9842 46.476C91.0482 46.476 91.1162 46.476 91.1882 46.476V48.288C90.9322 48.16 90.6562 48.096 90.3602 48.096C89.9842 48.096 89.6922 48.192 89.4842 48.384C89.1962 48.648 89.0522 49.056 89.0522 49.608V51.9H87.1322ZM92.0423 46.536H93.9623V51.9H92.0423V46.536ZM92.2343 45.072C92.0263 44.856 91.9223 44.6 91.9223 44.304C91.9223 44.008 92.0263 43.756 92.2343 43.548C92.4503 43.332 92.7063 43.224 93.0023 43.224C93.2983 43.224 93.5503 43.332 93.7583 43.548C93.9743 43.756 94.0823 44.008 94.0823 44.304C94.0823 44.6 93.9743 44.856 93.7583 45.072C93.5503 45.28 93.2983 45.384 93.0023 45.384C92.7063 45.384 92.4503 45.28 92.2343 45.072ZM99.321 50.172V51.78C98.913 51.98 98.469 52.08 97.989 52.08C97.141 52.08 96.437 51.808 95.877 51.264C95.325 50.728 95.049 50.06 95.049 49.26C95.049 48.436 95.337 47.744 95.913 47.184C96.481 46.64 97.201 46.368 98.073 46.368C98.505 46.368 98.921 46.468 99.321 46.668V48.276C98.993 48.044 98.661 47.928 98.325 47.928C97.949 47.928 97.637 48.052 97.389 48.3C97.141 48.548 97.017 48.856 97.017 49.224C97.017 49.576 97.129 49.876 97.353 50.124C97.609 50.396 97.937 50.532 98.337 50.532C98.713 50.532 99.041 50.412 99.321 50.172ZM106.098 49.368V49.572H102.102C102.102 49.948 102.214 50.248 102.438 50.472C102.614 50.648 102.878 50.736 103.23 50.736C103.47 50.736 103.678 50.688 103.854 50.592C104.006 50.504 104.118 50.384 104.19 50.232H106.026C105.906 50.664 105.69 51.032 105.378 51.336C104.866 51.832 104.138 52.08 103.194 52.08C102.258 52.08 101.518 51.808 100.974 51.264C100.446 50.736 100.182 50.06 100.182 49.236C100.182 48.372 100.45 47.68 100.986 47.16C101.522 46.64 102.254 46.38 103.182 46.38C104.038 46.38 104.726 46.624 105.246 47.112C105.814 47.656 106.098 48.408 106.098 49.368ZM102.162 48.468H104.334C104.278 48.236 104.174 48.044 104.022 47.892C103.83 47.7 103.566 47.604 103.23 47.604C102.902 47.604 102.642 47.7 102.45 47.892C102.29 48.068 102.194 48.26 102.162 48.468Z" fill="#898C94" fill-opacity="0.58"/>
<defs>
<filter id="filter0_d_19_12184" x="-9.72748e-05" y="2.47955e-05" width="211.8" height="117.8" filterUnits="userSpaceOnUse" color-interpolation-filters="sRGB">
<feFlood flood-opacity="0" result="BackgroundImageFix"/>
<feColorMatrix in="SourceAlpha" type="matrix" values="0 0 0 0 0 0 0 0 0 0 0 0 0 0 0 0 0 0 127 0" result="hardAlpha"/>
<feOffset dy="-9"/>
<feGaussianBlur stdDeviation="5.45"/>
<feComposite in2="hardAlpha" operator="out"/>
<feColorMatrix type="matrix" values="0 0 0 0 0.234377 0 0 0 0 0.342499 0 0 0 0 0.388835 0 0 0 0.05 0"/>
<feBlend mode="normal" in2="BackgroundImageFix" result="effect1_dropShadow_19_12184"/>
<feBlend mode="normal" in="SourceGraphic" in2="effect1_dropShadow_19_12184" result="shape"/>
</filter>
</defs>
</svg>
