<svg width="126" height="28" viewBox="0 0 126 28" fill="none" xmlns="http://www.w3.org/2000/svg">
<rect width="126" height="28" rx="14" fill="white"/>
<path d="M21.1608 10.836H19.2168V18H18.3288V10.836H16.3848V9.996H21.1608V10.836ZM24.8304 16.332L25.5504 16.728C25.3824 17.048 25.1784 17.316 24.9384 17.532C24.4824 17.94 23.9304 18.144 23.2824 18.144C22.6104 18.144 22.0304 17.928 21.5424 17.496C21.0624 17.056 20.8224 16.404 20.8224 15.54C20.8224 14.78 21.0384 14.152 21.4704 13.656C21.9104 13.152 22.4984 12.9 23.2344 12.9C24.0664 12.9 24.6944 13.204 25.1184 13.812C25.4544 14.292 25.6104 14.916 25.5864 15.684H21.7104C21.7184 16.188 21.8744 16.596 22.1784 16.908C22.4824 17.22 22.8544 17.376 23.2944 17.376C23.6864 17.376 24.0264 17.256 24.3144 17.016C24.5384 16.824 24.7104 16.596 24.8304 16.332ZM21.7704 14.964H24.6984C24.6264 14.572 24.4544 14.26 24.1824 14.028C23.9184 13.788 23.6024 13.668 23.2344 13.668C22.8744 13.668 22.5544 13.792 22.2744 14.04C22.0024 14.28 21.8344 14.588 21.7704 14.964ZM30.8117 13.38V14.412C30.4197 13.916 29.8997 13.668 29.2517 13.668C28.7637 13.668 28.3477 13.836 28.0037 14.172C27.6597 14.5 27.4877 14.952 27.4877 15.528C27.4877 16.104 27.6597 16.556 28.0037 16.884C28.3477 17.212 28.7597 17.376 29.2397 17.376C29.8797 17.376 30.4157 17.116 30.8477 16.596V17.628C30.3757 17.972 29.8477 18.144 29.2637 18.144C28.4877 18.144 27.8477 17.9 27.3437 17.412C26.8477 16.916 26.5997 16.292 26.5997 15.54C26.5997 14.78 26.8517 14.152 27.3557 13.656C27.8597 13.152 28.4957 12.9 29.2637 12.9C29.8397 12.9 30.3557 13.06 30.8117 13.38ZM32.1734 18V9.252H33.0374V13.596C33.3894 13.132 33.8654 12.9 34.4654 12.9C35.1054 12.9 35.5814 13.128 35.8934 13.584C36.0854 13.864 36.1814 14.308 36.1814 14.916V18H35.3174V14.94C35.3174 14.532 35.2414 14.228 35.0894 14.028C34.9054 13.788 34.6334 13.668 34.2734 13.668C33.9054 13.668 33.6134 13.796 33.3974 14.052C33.1574 14.332 33.0374 14.78 33.0374 15.396V18H32.1734ZM37.8101 18V13.02H38.6741V13.596C39.0261 13.132 39.5021 12.9 40.1021 12.9C40.7421 12.9 41.2181 13.128 41.5301 13.584C41.7221 13.864 41.8181 14.308 41.8181 14.916V18H40.9541V14.94C40.9541 14.532 40.8781 14.228 40.7261 14.028C40.5421 13.788 40.2701 13.668 39.9101 13.668C39.5421 13.668 39.2501 13.796 39.0341 14.052C38.7941 14.332 38.6741 14.78 38.6741 15.396V18H37.8101ZM43.4469 13.02H44.3109V18H43.4469V13.02ZM43.4469 11.568C43.3269 11.448 43.2669 11.304 43.2669 11.136C43.2669 10.968 43.3269 10.824 43.4469 10.704C43.5669 10.584 43.7109 10.524 43.8789 10.524C44.0469 10.524 44.1909 10.584 44.3109 10.704C44.4309 10.824 44.4909 10.968 44.4909 11.136C44.4909 11.304 44.4309 11.448 44.3109 11.568C44.1909 11.688 44.0469 11.748 43.8789 11.748C43.7109 11.748 43.5669 11.688 43.4469 11.568ZM49.843 13.38V14.412C49.451 13.916 48.931 13.668 48.283 13.668C47.795 13.668 47.379 13.836 47.035 14.172C46.691 14.5 46.519 14.952 46.519 15.528C46.519 16.104 46.691 16.556 47.035 16.884C47.379 17.212 47.791 17.376 48.271 17.376C48.911 17.376 49.447 17.116 49.879 16.596V17.628C49.407 17.972 48.879 18.144 48.295 18.144C47.519 18.144 46.879 17.9 46.375 17.412C45.879 16.916 45.631 16.292 45.631 15.54C45.631 14.78 45.883 14.152 46.387 13.656C46.891 13.152 47.527 12.9 48.295 12.9C48.871 12.9 49.387 13.06 49.843 13.38ZM55.0207 13.728V13.02H55.8847V18H55.0207V17.304C54.5887 17.864 54.0207 18.144 53.3167 18.144C52.6447 18.144 52.0727 17.912 51.6007 17.448C51.1287 16.984 50.8927 16.336 50.8927 15.504C50.8927 14.688 51.1247 14.052 51.5887 13.596C52.0607 13.132 52.6367 12.9 53.3167 12.9C54.0367 12.9 54.6047 13.176 55.0207 13.728ZM53.4127 13.668C52.9567 13.668 52.5687 13.832 52.2487 14.16C51.9367 14.48 51.7807 14.928 51.7807 15.504C51.7807 16.056 51.9247 16.508 52.2127 16.86C52.5087 17.204 52.9087 17.376 53.4127 17.376C53.9167 17.376 54.3167 17.196 54.6127 16.836C54.9167 16.476 55.0687 16.036 55.0687 15.516C55.0687 14.924 54.9007 14.468 54.5647 14.148C54.2287 13.828 53.8447 13.668 53.4127 13.668ZM57.5211 9.252H58.3851V18H57.5211V9.252ZM63.034 18V9.996H64.666C65.898 9.996 66.882 10.308 67.618 10.932C68.53 11.692 68.986 12.716 68.986 14.004C68.986 15.252 68.518 16.276 67.582 17.076C67.198 17.404 66.786 17.64 66.346 17.784C65.906 17.928 65.342 18 64.654 18H63.034ZM63.922 10.836V17.16H64.702C65.654 17.16 66.418 16.92 66.994 16.44C67.714 15.832 68.074 15.02 68.074 14.004C68.074 13.044 67.766 12.276 67.15 11.7C66.534 11.124 65.718 10.836 64.702 10.836H63.922ZM74.216 13.728V13.02H75.08V18H74.216V17.304C73.784 17.864 73.216 18.144 72.512 18.144C71.84 18.144 71.268 17.912 70.796 17.448C70.324 16.984 70.088 16.336 70.088 15.504C70.088 14.688 70.32 14.052 70.784 13.596C71.256 13.132 71.832 12.9 72.512 12.9C73.232 12.9 73.8 13.176 74.216 13.728ZM72.608 13.668C72.152 13.668 71.764 13.832 71.444 14.16C71.132 14.48 70.976 14.928 70.976 15.504C70.976 16.056 71.12 16.508 71.408 16.86C71.704 17.204 72.104 17.376 72.608 17.376C73.112 17.376 73.512 17.196 73.808 16.836C74.112 16.476 74.264 16.036 74.264 15.516C74.264 14.924 74.096 14.468 73.76 14.148C73.424 13.828 73.04 13.668 72.608 13.668ZM78.4684 13.812H77.6044V18H76.7404V13.812H76.2124V13.02H76.7404V11.22H77.6044V13.02H78.4684V13.812ZM83.0988 13.728V13.02H83.9628V18H83.0988V17.304C82.6668 17.864 82.0988 18.144 81.3948 18.144C80.7228 18.144 80.1508 17.912 79.6788 17.448C79.2068 16.984 78.9708 16.336 78.9708 15.504C78.9708 14.688 79.2028 14.052 79.6668 13.596C80.1388 13.132 80.7148 12.9 81.3948 12.9C82.1148 12.9 82.6828 13.176 83.0988 13.728ZM81.4908 13.668C81.0348 13.668 80.6468 13.832 80.3268 14.16C80.0148 14.48 79.8588 14.928 79.8588 15.504C79.8588 16.056 80.0028 16.508 80.2908 16.86C80.5868 17.204 80.9868 17.376 81.4908 17.376C81.9948 17.376 82.3948 17.196 82.6908 16.836C82.9948 16.476 83.1468 16.036 83.1468 15.516C83.1468 14.924 82.9788 14.468 82.6428 14.148C82.3068 13.828 81.9228 13.668 81.4908 13.668Z" fill="black"/>
<path d="M110.156 14.7187L109.661 14.3869L109.286 13.3488C109.22 13.168 109.054 13.043 108.862 13.0305L103.646 12.6884L102.103 11.6053C101.323 11.0578 100.343 10.87 99.416 11.09L98.2768 11.3603C97.056 11.6499 95.8832 12.1161 94.7982 12.7371C94.783 12.7356 94.7677 12.7348 94.7522 12.7348H93.4518L93.0125 12.2954C92.8234 12.1064 92.5168 12.1064 92.3277 12.2954C92.1386 12.4845 92.1386 12.7911 92.3277 12.9802L92.9088 13.5614C92.9996 13.6521 93.1228 13.7032 93.2512 13.7032H93.3441C93.0613 13.9196 92.787 14.1475 92.5224 14.3869C92.4209 14.4787 92.363 14.6091 92.363 14.7459V15.146L92.0504 15.7771C92.0172 15.8439 92 15.9175 92 15.9921C92 16.5927 92.4887 17.0814 93.0893 17.0814H94.8449C95.0584 17.8699 95.7798 18.4518 96.6349 18.4518C97.49 18.4518 98.2115 17.8699 98.425 17.0814H104.406C104.62 17.8699 105.341 18.4518 106.196 18.4518C107.052 18.4518 107.773 17.8699 107.987 17.0814H109.189C109.675 17.0814 110.106 16.7548 110.238 16.2871L110.452 15.5236C110.538 15.2187 110.419 14.8952 110.156 14.7187ZM109.305 16.0248C109.291 16.0768 109.243 16.1131 109.189 16.1131H107.987C107.773 15.3245 107.052 14.7427 106.197 14.7427C105.341 14.7427 104.62 15.3245 104.406 16.1131H98.425C98.2115 15.3245 97.49 14.7427 96.6349 14.7427C95.7798 14.7427 95.0583 15.3245 94.8449 16.1131H93.0893C93.0484 16.1131 93.0121 16.0926 92.9902 16.0614L93.2811 15.4742C93.3142 15.4074 93.3315 15.3338 93.3315 15.2593V14.9633C94.8087 13.6737 96.5913 12.7553 98.5003 12.3025L99.6395 12.0322C100.298 11.876 100.993 12.0094 101.547 12.398L103.201 13.559C103.274 13.61 103.359 13.64 103.447 13.6458L108.483 13.9761L108.805 14.8655C108.84 14.9623 108.905 15.0455 108.99 15.1028L109.474 15.427L109.305 16.0248ZM107.083 16.5972C107.083 17.0859 106.685 17.4835 106.197 17.4835C105.708 17.4835 105.31 17.0859 105.31 16.5972C105.31 16.1086 105.708 15.711 106.197 15.711C106.685 15.711 107.083 16.1086 107.083 16.5972ZM97.5212 16.5972C97.5212 17.0859 97.1236 17.4835 96.6349 17.4835C96.1462 17.4835 95.7487 17.0859 95.7487 16.5972C95.7487 16.1086 96.1462 15.711 96.6349 15.711C97.1236 15.711 97.5212 16.1086 97.5212 16.5972Z" fill="black"/>
</svg>
